<svg width="310" height="211" viewBox="0 0 310 211" fill="none" xmlns="http://www.w3.org/2000/svg">
<path d="M30.3626 89.7086H66.2608V139.771H7.54871L30.3626 89.7086Z" fill="#522B47"/>
<rect x="17.9491" y="139.771" width="241.894" height="70.8933" rx="8" fill="#F0EFFF"/>
<path d="M66.2609 139.771V64.1736H116.586V139.771H66.2609Z" fill="#F0EFFF"/>
<path d="M91.0877 0L66.2608 64.1736H116.586L91.0877 0Z" fill="#522B47"/>
<path d="M116.585 139.771V90.0446L247.094 89.7086L270.243 139.771H226.964L169.762 93.4045L116.585 139.771Z" fill="#522B47"/>
<path d="M169.762 93.4044L116.585 139.771H226.964L169.762 93.4044Z" fill="#F0EFFF"/>
<path d="M93.1007 84.3328H89.7457V91.0526H84.7133V93.7405H89.7457V110.204H93.1007V93.7405H98.1332V91.0526H93.1007V84.3328Z" fill="#522B47"/>
<path d="M51.6667 210.664L35.0596 210.832V174.041C35.0596 172.865 39.2533 162.282 43.447 162.282C47.6407 162.282 51.499 173.369 51.499 174.041C51.499 174.713 51.6667 210.664 51.6667 210.664Z" fill="#B96AC9"/>
<path d="M252.63 210.664L236.023 210.832V174.041C236.023 172.865 240.216 162.282 244.41 162.282C248.604 162.282 252.462 173.369 252.462 174.041C252.462 174.713 252.63 210.664 252.63 210.664Z" fill="#B96AC9"/>
<path d="M80.8551 166.482C80.8551 163.794 88.2361 151.53 91.2555 151.53C94.2749 151.53 101.824 163.458 101.824 166.482V210.664L80.8551 210.832V166.482Z" fill="#B96AC9"/>
<path d="M189.053 210.664L148.626 210.832V173.369C148.626 167.322 160.536 144.811 168.755 144.811C176.975 144.811 189.053 166.986 189.053 173.201V210.664Z" fill="#B96AC9"/>
<path d="M14.9466 167.345L17.9041 169.679L24.171 167.474C24.171 167.474 26.3018 165.074 27.5067 166.861C27.9193 167.473 25.2164 168.605 24.9615 168.71C24.324 168.972 18.2173 172.328 17.6189 171.887C17.0205 171.447 13.6536 169.221 13.6536 169.221L14.9466 167.345Z" fill="#A0616A"/>
<path d="M4.85089 163.362C7.65392 162.313 10.3204 161.817 12.4822 163.362V158.375C12.4822 157.873 12.3835 157.377 12.1918 156.913C12 156.449 11.719 156.028 11.3647 155.673C11.0103 155.318 10.5897 155.037 10.1268 154.845C9.66383 154.653 9.16765 154.554 8.66657 154.554H8.66657C8.16549 154.554 7.66931 154.653 7.20637 154.845C6.74343 155.037 6.32279 155.318 5.96848 155.673C5.61416 156.028 5.3331 156.449 5.14135 156.913C4.94959 157.377 4.8509 157.874 4.8509 158.375L4.85089 163.362Z" fill="#2F2E41"/>
<path d="M11.894 174.257L12.123 175.862C12.123 175.862 12.6957 177.583 12.123 180.794L21.3422 205.969L14.528 207.918L11.1496 194.155L6.39688 183.661L6.85497 195.589L9.25995 208.32L2.15951 208.033L0.0904408 186.204C-0.244127 182.754 0.353416 179.277 1.82053 176.138C2.39452 174.917 3.01168 173.955 3.57167 173.815C5.25164 173.397 11.894 174.257 11.894 174.257Z" fill="#2F2E41"/>
<path d="M20.4832 205.797L22.831 208.32C22.831 208.32 27.3546 210.671 24.148 210.958C20.9413 211.244 19.8534 209.983 19.8534 209.983C19.8534 209.983 15.845 209.696 15.9023 209.123C15.9596 208.549 16.2459 206.657 16.2459 206.657L20.4832 205.797Z" fill="#2F2E41"/>
<path d="M7.74263 206.405V208.183C7.74263 208.183 7.68536 208.928 7.74263 209.1C7.79989 209.272 8.65881 211.394 5.79573 210.935C2.93265 210.476 4.07788 208.699 4.07788 208.699L4.76502 206.118L7.74263 206.405Z" fill="#2F2E41"/>
<path d="M8.7017 161.87C7.11256 161.87 5.82431 160.58 5.82431 158.989C5.82431 157.397 7.11256 156.107 8.7017 156.107C10.2908 156.107 11.5791 157.397 11.5791 158.989C11.5791 160.58 10.2908 161.87 8.7017 161.87Z" fill="#A0616A"/>
<path d="M6.71189 160.58C6.71189 160.58 7.11272 164.365 6.71189 165.053C6.31106 165.741 10.7775 164.365 10.7775 164.365C10.7775 164.365 9.80401 161.784 10.1476 160.752C10.4912 159.72 6.71189 160.58 6.71189 160.58Z" fill="#A0616A"/>
<path d="M4.42136 171.475L3.50517 173.999L12.0372 174.973C12.0372 174.973 12.9533 174.801 12.9533 174.056C12.9533 173.31 13.9268 170.673 13.9268 170.673C13.9268 170.673 16.3109 168.737 17.4561 168.221C17.8713 168.034 17.2503 168.112 16.901 167.318C16.7962 167.079 16.6708 166.828 16.5339 166.572C16.4223 166.363 16.302 166.151 16.1789 165.942C16.0294 165.686 15.8754 165.435 15.726 165.196C15.2736 164.473 14.8607 163.865 14.7285 163.619C14.3276 162.874 10.5592 162.807 10.5592 162.807C9.48158 163.486 6.36826 163.619 6.36826 163.619C6.36826 163.619 4.22668 164.517 3.33454 165.196C3.26983 165.245 4.42136 171.475 4.42136 171.475Z" fill="#58568C"/>
<path d="M6.27366 155.529V155.461L6.35487 155.465C6.81619 155.113 7.35146 154.871 7.92008 154.758C8.4887 154.644 9.07572 154.661 9.63662 154.808C9.09895 154.951 8.59899 155.209 8.172 155.566L10.9301 155.72L12.0942 158.31H11.3064L10.6714 157.145V158.31H8.00688L7.8258 157.404L7.32278 158.31H6.79928C6.79604 158.375 6.79104 158.439 6.79104 158.505L7.30842 163.492L4.85087 162.455V158.505C4.85042 157.934 4.97804 157.37 5.22429 156.855C5.47055 156.34 5.82916 155.887 6.27366 155.529Z" fill="#2F2E41"/>
<path d="M2.41726 168.723L2.58905 173.253L3.04714 182.027C3.04714 182.027 2.41726 185.812 4.02059 185.754C5.62392 185.697 4.42142 181.282 4.42142 181.282L4.87952 174.343L4.42142 169.468L2.41726 168.723Z" fill="#A0616A"/>
<path d="M1.95914 171.189C1.95914 171.705 4.85085 171.562 4.85085 171.562L6.36829 163.619C6.36829 163.619 4.22671 164.517 3.33457 165.196C3.12459 165.414 2.95287 165.666 2.82665 165.942C2.75851 166.126 2.69381 166.339 2.63253 166.572C2.57183 166.804 2.51515 167.056 2.4619 167.318C2.21198 168.596 2.04405 169.889 1.95914 171.189Z" fill="#58568C"/>
<path d="M300.096 163.106C299.678 162.728 299.418 162.207 299.367 161.646C299.315 161.084 299.476 160.524 299.817 160.076C299.772 160.119 299.728 160.163 299.685 160.21C299.287 160.652 299.08 161.234 299.11 161.83C299.14 162.425 299.405 162.983 299.846 163.383C300.287 163.782 300.868 163.99 301.462 163.96C302.056 163.931 302.614 163.666 303.013 163.224C303.055 163.177 303.094 163.129 303.132 163.079C302.721 163.465 302.181 163.681 301.619 163.686C301.056 163.691 300.513 163.484 300.096 163.106Z" fill="#2F2E41"/>
<path d="M298.064 164.701C300.615 164.701 302.683 162.629 302.683 160.073C302.683 157.517 300.615 155.445 298.064 155.445C295.513 155.445 293.445 157.517 293.445 160.073C293.445 162.629 295.513 164.701 298.064 164.701Z" fill="#2F2E41"/>
<path d="M296.046 166.582L296.183 166.226L293.692 168.338L290.681 170.038C290.681 170.038 289.148 164.113 289.038 164.004C288.929 163.894 286.958 159.725 286.082 161.7C285.206 163.675 287.779 164.827 287.779 164.827C287.779 164.827 287.861 172.041 290.489 171.986C293.117 171.931 296.375 169.545 296.43 169.325C296.484 169.106 296.046 166.582 296.046 166.582Z" fill="#FFB8B8"/>
<path d="M291.447 200.156L291.119 204.929C291.119 204.929 290.243 205.917 290.133 207.014C290.024 208.111 288.874 210.086 288.874 210.086C288.874 210.086 288.546 210.415 289.531 210.306C290.517 210.196 292.214 210.031 292.378 209.537C292.542 209.044 292.433 206.959 293.418 206.74V208.715H293.911L293.747 206.575C293.747 206.575 294.897 204.984 293.473 204.051L293.911 200.431L291.447 200.156Z" fill="#2F2E41"/>
<path d="M305.026 200.541L306.997 204.216C306.997 204.216 306.723 205.588 306.997 206.027C307.271 206.465 307.271 207.947 307.216 208.111C307.161 208.276 307.106 209.757 308.475 209.867C308.475 209.867 308.804 210.196 309.187 209.757C309.57 209.318 310.172 208.495 309.953 208.056C309.734 207.617 308.968 203.997 308.913 203.887C308.858 203.777 307.271 199.443 307.271 199.443L305.026 200.541Z" fill="#2F2E41"/>
<path d="M297.601 164.906C299.113 164.906 300.338 163.678 300.338 162.163C300.338 160.648 299.113 159.42 297.601 159.42C296.089 159.42 294.863 160.648 294.863 162.163C294.863 163.678 296.089 164.906 297.601 164.906Z" fill="#FFB8B8"/>
<path d="M297.306 164.607C297.306 164.607 298.018 165.54 297.799 165.65C297.58 165.759 296.32 165.814 295.554 166.747C294.787 167.679 296.484 170.038 296.484 170.038L302.945 165.704L300.317 164.827C300.317 164.827 299.462 163.491 299.516 162.448L297.306 164.607Z" fill="#FFB8B8"/>
<path d="M304.204 165.869L302.343 165.211C302.343 165.211 295.225 168.557 295.335 168.722C295.444 168.886 295.335 170.038 295.335 170.038C295.335 170.038 294.294 170.751 294.787 172.397C295.28 174.043 296.375 174.098 296.211 174.317C296.047 174.537 295.992 175.853 295.992 175.853C295.992 175.853 287.451 188.965 288.162 198.73C288.162 198.73 295.718 203.832 296.758 200.54C297.799 197.249 298.127 188.636 298.127 188.636C298.127 188.636 299.058 202.131 301.248 202.077C303.438 202.022 308.42 201.309 307.982 199.608C307.544 197.907 303.985 190.885 304.369 185.893C304.752 180.901 301.741 176.567 301.741 176.567C301.741 176.567 302.398 175.195 302.069 174.976L305.683 169.49C305.683 169.49 305.683 166.363 304.204 165.869Z" fill="#2F2E41"/>
<path d="M304.231 166.192C304.17 166.158 304.103 166.138 304.033 166.132C303.964 166.127 303.894 166.137 303.829 166.161C303.764 166.186 303.705 166.224 303.656 166.274C303.607 166.323 303.569 166.383 303.546 166.449C303.381 166.903 303.214 167.85 303.274 169.819C303.383 173.44 303.438 175.908 303.438 175.908V181.394C303.438 181.394 301.029 186.661 302.343 186.661C303.657 186.661 304.588 182.492 304.588 182.492C304.588 182.492 305.792 176.183 305.409 175.085C305.409 175.085 306.49 167.506 304.231 166.192Z" fill="#FFB8B8"/>
<path d="M297.186 161.241C298.483 161.241 299.535 160.522 299.535 159.636C299.535 158.749 298.483 158.031 297.186 158.031C295.888 158.031 294.836 158.749 294.836 159.636C294.836 160.522 295.888 161.241 297.186 161.241Z" fill="#2F2E41"/>
<path d="M300.917 158.376C302.156 158.376 303.16 157.37 303.16 156.129C303.16 154.888 302.156 153.882 300.917 153.882C299.678 153.882 298.674 154.888 298.674 156.129C298.674 157.37 299.678 158.376 300.917 158.376Z" fill="#2F2E41"/>
<path d="M302.519 157.734C301.956 157.734 301.415 157.523 301.001 157.141C300.587 156.759 300.331 156.236 300.284 155.674C300.279 155.736 300.276 155.799 300.276 155.862C300.276 156.458 300.512 157.029 300.933 157.451C301.354 157.872 301.924 158.109 302.519 158.109C303.114 158.109 303.684 157.872 304.105 157.451C304.525 157.029 304.762 156.458 304.762 155.862C304.762 155.799 304.758 155.736 304.753 155.674C304.706 156.236 304.451 156.759 304.037 157.141C303.623 157.523 303.081 157.734 302.519 157.734Z" fill="#2F2E41"/>
<path d="M300.276 161.685C300.379 161.66 300.417 161.449 300.36 161.213C300.304 160.978 300.175 160.807 300.072 160.831C299.969 160.856 299.931 161.067 299.988 161.303C300.044 161.538 300.173 161.71 300.276 161.685Z" fill="#FFB8B8"/>
<path d="M300.256 161.642C300.317 161.642 300.366 161.593 300.366 161.532C300.366 161.472 300.317 161.423 300.256 161.423C300.196 161.423 300.147 161.472 300.147 161.532C300.147 161.593 300.196 161.642 300.256 161.642Z" fill="#F2F2F2"/>
<path d="M279.91 166.206C279.968 166.206 280.015 166.159 280.015 166.101C280.015 166.043 279.968 165.996 279.91 165.996C279.852 165.996 279.805 166.043 279.805 166.101C279.805 166.159 279.852 166.206 279.91 166.206Z" fill="#F2F2F2"/>
<path d="M280.015 170.731C280.073 170.731 280.12 170.684 280.12 170.626C280.12 170.568 280.073 170.521 280.015 170.521C279.957 170.521 279.91 170.568 279.91 170.626C279.91 170.684 279.957 170.731 280.015 170.731Z" fill="#F2F2F2"/>
<path d="M177.822 87.3416C178.398 86.3609 178.701 85.2439 178.701 84.1063H163.099C163.099 85.2439 163.402 86.3609 163.978 87.3416H160.804C160.804 89.0471 162.242 90.4298 164.016 90.4298H167.948C168.608 90.6255 169.293 90.7246 169.982 90.7239H171.818C172.506 90.7246 173.192 90.6255 173.852 90.4298H177.783C179.557 90.4298 180.995 89.0471 180.995 87.3416H177.822Z" fill="#9896B3"/>
<path d="M166.297 109.621C166.326 109.935 166.259 110.25 166.106 110.524C165.953 110.799 165.72 111.021 165.438 111.161L165.43 111.165C163.961 112.004 162.76 112.663 161.333 112.541C161.19 112.528 161.051 112.483 160.928 112.407C160.804 112.332 160.7 112.229 160.623 112.107C160.546 111.985 160.499 111.847 160.484 111.703C160.469 111.559 160.487 111.414 160.538 111.279L162.566 107.415C163.745 106.04 164.575 106.039 166.017 107.195L166.297 109.621Z" fill="#2F2E41"/>
<path d="M174.695 109.621C174.666 109.935 174.733 110.25 174.886 110.524C175.04 110.799 175.272 111.021 175.554 111.161L175.562 111.165C177.031 112.004 178.233 112.663 179.659 112.541C179.802 112.528 179.941 112.483 180.064 112.407C180.188 112.332 180.292 112.229 180.369 112.107C180.446 111.985 180.493 111.847 180.508 111.703C180.523 111.559 180.505 111.414 180.454 111.279L178.426 107.415C177.247 106.04 176.417 106.039 174.975 107.195L174.695 109.621Z" fill="#2F2E41"/>
<path d="M168.799 64.1062H163.154C162.899 64.1067 162.65 64.0246 162.444 63.8721C162.239 63.7196 162.088 63.5049 162.014 63.2598C161.84 62.6797 161.615 62.1168 161.612 61.6062C161.598 59.6248 161.696 58.3636 162.566 57.5621C165.465 55.3608 167.566 55.7658 169.541 58.0768C170.235 59.3679 170.057 61.2949 169.682 63.3656C169.645 63.5731 169.536 63.7609 169.375 63.8962C169.213 64.0316 169.01 64.1059 168.799 64.1062Z" fill="#2F2E41"/>
<path d="M165.87 66.6062C167.979 66.6062 169.688 64.8944 169.688 62.7827C169.688 60.671 167.979 58.9592 165.87 58.9592C163.762 58.9592 162.052 60.671 162.052 62.7827C162.052 64.8944 163.762 66.6062 165.87 66.6062Z" fill="#A0616A"/>
<path d="M168.807 70.4298L163.521 70.5769L163.08 64.8416L168.22 64.6945L168.807 70.4298Z" fill="#A0616A"/>
<path d="M177.765 84.1063L174.117 85.7972C173.506 87.2492 172.663 87.2075 171.597 85.7239C170.58 87.5082 168.389 86.439 167.318 85.6596C166.628 85.3074 165.865 85.123 165.09 85.1214C164.316 85.1198 163.552 85.301 162.86 85.6504L158.969 68.371C160.168 67.3382 161.766 66.6896 163.301 66.2386L166.311 69.9886L168.367 66.3121C169.796 65.1616 171.803 65.1595 173.947 65.4298L175.199 72.1327C174.373 77.4202 175.615 80.0722 177.765 84.1063Z" fill="#2F2E41"/>
<path d="M165.723 106.9L162.64 107.195L158.071 86.9749C157.968 86.5067 157.97 86.021 158.079 85.5539C158.187 85.0867 158.399 84.6499 158.699 84.2757C158.998 83.9016 159.378 83.5996 159.81 83.3921C160.242 83.1846 160.715 83.0769 161.194 83.0769C161.649 83.0769 162.099 83.1743 162.514 83.3626C162.929 83.5508 163.299 83.8256 163.599 84.1686C163.899 84.5115 164.123 84.9147 164.255 85.3512C164.387 85.7876 164.424 86.2473 164.365 86.6994L163.814 90.871L165.723 106.9Z" fill="#9896B3"/>
<path d="M174.975 107.195L178.058 107.048L182.627 86.9749C182.731 86.5067 182.728 86.021 182.62 85.5539C182.511 85.0867 182.299 84.6499 181.999 84.2757C181.7 83.9016 181.32 83.5996 180.888 83.3921C180.456 83.1846 179.983 83.0769 179.504 83.0769C179.049 83.0769 178.599 83.1743 178.184 83.3626C177.769 83.5508 177.4 83.8256 177.099 84.1686C176.799 84.5115 176.576 84.9147 176.443 85.3512C176.311 85.7876 176.274 86.2473 176.334 86.6994L176.884 90.871L174.975 107.195Z" fill="#9896B3"/>
<path d="M184.998 78.1769L182.39 84.9151C180.965 83.8236 179.815 83.6745 178.234 84.2534C177.797 84.1926 177.471 83.23 177.471 82.7879C177.471 82.5599 177.559 82.3407 177.716 82.1759C177.873 82.0111 178.088 81.9134 178.315 81.903L180.702 81.7944C181.138 80.6496 181.404 79.4464 181.489 78.2239C182.634 77.8986 183.845 77.8823 184.998 78.1769Z" fill="#A0616A"/>
<path d="M185.254 78.371L185.89 75.9955C186.167 75.1267 186.14 74.189 185.812 73.3378C185.485 72.4867 184.876 71.7732 184.088 71.3158L173.947 65.4298L173.8 71.9004L181.289 75.1357C181.496 76.2366 181.563 77.3593 181.489 78.477C182.657 78.1293 184.083 78.0555 185.254 78.371Z" fill="#2F2E41"/>
<path d="M169.615 60.6503L165.65 61.3856C165.284 61.3856 164.921 61.3133 164.582 61.1729C164.244 61.0325 163.936 60.8267 163.677 60.5672C163.418 60.3078 163.213 59.9998 163.072 59.6608C162.932 59.3218 162.86 58.9584 162.86 58.5915H169.762L169.615 60.6503Z" fill="#2F2E41"/>
<path d="M162.346 62.1209C162.549 62.1209 162.713 61.7917 162.713 61.3856C162.713 60.9795 162.549 60.6503 162.346 60.6503C162.143 60.6503 161.979 60.9795 161.979 61.3856C161.979 61.7917 162.143 62.1209 162.346 62.1209Z" fill="#A0616A"/>
<path d="M172.405 73.7386C172.729 73.7386 172.992 73.4752 172.992 73.1504C172.992 72.8255 172.729 72.5621 172.405 72.5621C172.081 72.5621 171.818 72.8255 171.818 73.1504C171.818 73.4752 172.081 73.7386 172.405 73.7386Z" fill="#2F2E41"/>
<path d="M171.891 78.518C168.87 80.8927 165.842 82.8692 163.594 83.1504L163.227 79.1062C165.386 78.7946 168.272 77.3703 171.304 75.7239L172.786 74.9518C173.025 74.8273 173.292 74.7641 173.561 74.7678C173.831 74.7715 174.095 74.8421 174.33 74.9732C174.566 75.1043 174.765 75.2919 174.911 75.5191C175.056 75.7462 175.143 76.006 175.164 76.2751C175.193 76.6567 175.088 77.0365 174.866 77.3482C174.644 77.6598 174.32 77.8835 173.95 77.9801L171.891 78.518Z" fill="#A0616A"/>
<path d="M166.164 83.2239L160.143 83.371C158.118 79.3909 157.382 75.1438 157.794 70.6594C157.794 70.1802 157.91 69.7081 158.132 69.2836C158.354 68.8592 158.676 68.4949 159.069 68.2222L159.703 67.7827C162.413 71.8119 164.094 75.5534 163.521 78.6651L165.283 78.518C164.142 80.0604 164.67 81.6333 166.164 83.2239Z" fill="#2F2E41"/>
<path d="M128.683 202.747L128.381 205.669L130.091 205.468L130.293 203.05L128.683 202.747Z" fill="#FFB9B9"/>
<path d="M124.155 180.58C124.155 180.58 115.402 189.044 120.936 191.664H122.646C122.646 191.664 126.369 185.517 128.18 185.618L128.683 191.462L128.381 203.251L130.595 203.352C130.595 203.352 131.903 197.407 131.802 194.082L134.116 181.789L124.155 180.58Z" fill="#2F2E41"/>
<path d="M121.438 191.261L122.646 191.664C122.646 191.664 127.375 190.555 127.676 190.656L128.612 190.65L128.582 188.238H124.558L121.438 191.261Z" fill="#2F2E41"/>
<path d="M130.292 205.065C130.292 205.065 128.481 204.259 128.18 205.065C127.878 205.871 127.978 208.188 127.978 208.188C128.22 208.653 128.291 209.188 128.18 209.7C127.978 210.506 128.985 210.909 130.292 210.506C131.6 210.103 131.6 209.095 131.6 209.095L130.292 205.065Z" fill="#2F2E41"/>
<path d="M131.802 188.036C131.802 188.036 133.21 187.23 133.11 188.439C133.026 189.237 132.823 190.019 132.506 190.756C132.506 190.756 133.814 194.182 132.506 194.484C131.198 194.787 130.192 194.081 130.192 193.578C130.192 193.074 131.802 188.036 131.802 188.036Z" fill="#2F2E41"/>
<path d="M127.375 160.428L127.576 164.257L129.286 165.768L131.198 163.048V160.327L127.375 160.428Z" fill="#FFB9B9"/>
<path d="M128.683 164.257L127.531 163.4L126.771 164.559L123.35 166.574L125.362 171.814L125.463 176.952C125.463 176.952 121.74 180.781 123.954 181.285C126.167 181.789 134.015 182.897 134.418 181.99C134.82 181.084 133.915 171.713 133.915 171.713L134.216 163.753L131.198 162.66L128.683 164.257Z" fill="#73728C"/>
<path d="M122.545 170.638C122.545 170.638 121.74 176.348 123.25 176.348C124.146 176.351 125.034 176.18 125.865 175.844L124.658 172.72L125.161 170.604L122.545 170.638Z" fill="#FFB9B9"/>
<path d="M124.859 175.643L125.966 175.844C125.966 175.844 129.186 173.829 129.387 173.728C129.588 173.627 126.167 171.915 126.167 171.915L123.853 172.821L124.859 175.643Z" fill="#FFB9B9"/>
<path opacity="0.1" d="M126.167 171.914L124.714 172.484L125.161 170.605L122.545 170.638C122.545 170.638 121.74 176.348 123.25 176.348C124.146 176.351 125.034 176.18 125.866 175.844L125.858 175.824L125.966 175.844C125.966 175.844 129.186 173.829 129.387 173.728C129.588 173.627 126.167 171.914 126.167 171.914Z" fill="black"/>
<path d="M129.702 162.339C131.289 162.339 132.575 161.05 132.575 159.461C132.575 157.872 131.289 156.584 129.702 156.584C128.116 156.584 126.829 157.872 126.829 159.461C126.829 161.05 128.116 162.339 129.702 162.339Z" fill="#FFB9B9"/>
<path d="M127.162 156.215L126.601 155.99C126.601 155.99 127.775 154.696 129.408 154.809L128.948 154.302C128.948 154.302 130.071 153.852 131.091 155.034C131.628 155.655 132.249 156.385 132.636 157.207H133.237L132.986 157.761L133.864 158.314L132.963 158.215C133.048 158.692 133.019 159.183 132.878 159.648L132.902 160.085C132.902 160.085 131.857 158.466 131.857 158.241V158.804C131.857 158.804 131.296 158.298 131.296 157.96L130.99 158.354L130.836 157.734L128.948 158.353L129.254 157.846L128.08 158.015L128.54 157.396C128.54 157.396 127.213 158.128 127.162 158.747C127.111 159.366 126.447 160.153 126.447 160.153L126.141 159.591C126.141 159.591 125.682 157.059 127.162 156.215Z" fill="#2F2E41"/>
<path d="M132.204 168.892C131.696 169.52 131.413 170.3 131.399 171.109L126.067 170.907C126.067 170.907 124.658 170.706 124.658 171.713V172.721C124.658 172.721 125.362 172.418 125.765 172.721C126.167 173.023 130.494 175.643 132.607 174.635C134.719 173.628 135.222 169.698 135.222 169.698C135.222 169.698 133.311 168.086 132.204 168.892Z" fill="#FFB9B9"/>
<path d="M133.412 163.854L134.217 163.753C134.217 163.753 135.827 163.954 135.625 167.078C135.424 170.202 135.324 170.403 135.324 170.403C135.324 170.403 133.211 168.489 131.702 169.396L133.412 163.854Z" fill="#73728C"/>
<path d="M123.753 166.575H123.35C122.829 167.234 122.545 168.051 122.545 168.892C122.536 169.793 122.418 170.69 122.193 171.562L125.362 171.008L123.753 166.575Z" fill="#73728C"/>
<path d="M268.148 210.391L268.969 210.487C269.618 210.879 270.379 211.026 271.222 210.996C271.34 210.993 271.455 210.958 271.555 210.897C271.655 210.835 271.738 210.748 271.794 210.645C271.844 210.554 271.871 210.453 271.875 210.35C271.879 210.247 271.859 210.145 271.816 210.051C271.774 209.956 271.711 209.873 271.631 209.808C271.552 209.742 271.458 209.696 271.358 209.673L270.734 209.527L269.228 208.053L268.32 206.406L267.001 206.558L266.726 208.649C266.692 209.067 266.82 209.483 267.086 209.808C267.351 210.133 267.732 210.342 268.148 210.391Z" fill="#2F2E41"/>
<path d="M280.936 209.333L281.741 209.523C282.34 209.986 283.08 210.219 283.921 210.285C284.038 210.295 284.156 210.274 284.263 210.224C284.37 210.175 284.461 210.098 284.529 210.002C284.589 209.917 284.627 209.82 284.643 209.718C284.658 209.616 284.65 209.512 284.619 209.414C284.588 209.315 284.534 209.225 284.462 209.151C284.391 209.077 284.303 209.02 284.206 208.986L283.603 208.77L282.275 207.133L281.56 205.394H280.232L279.721 207.44C279.639 207.852 279.72 208.279 279.947 208.632C280.173 208.986 280.528 209.237 280.936 209.333Z" fill="#2F2E41"/>
<path d="M281.596 205.51L280.094 205.741L277.726 193.769L273.626 186.77L268.659 207.129L266.811 207.477C267.018 196.011 266.006 181.578 268.312 179.83L278.361 180.986L282.751 192.786L281.596 205.51Z" fill="#2F2E41"/>
<path d="M274.319 162.015C276.232 162.015 277.784 160.461 277.784 158.544C277.784 156.628 276.232 155.074 274.319 155.074C272.405 155.074 270.853 156.628 270.853 158.544C270.853 160.461 272.405 162.015 274.319 162.015Z" fill="#FFB8B8"/>
<path d="M269.467 163.866L273.626 164.56L274.665 160.859L271.662 159.933L269.467 163.866Z" fill="#FFB8B8"/>
<path d="M267.735 180.292L278.823 181.333C277.935 178.238 277.12 175.153 277.784 172.079C278.627 169.335 277.813 167.703 275.589 166.411L274.088 163.056L270.045 162.594C268.974 164.318 268.536 166.361 268.806 168.373C269.382 172.748 269.227 176.808 267.735 180.292Z" fill="#F0EFFF"/>
<path d="M272.956 154.607C274.14 154.525 275.508 154.502 275.679 154.814C276.905 154.757 277.972 155.185 278.464 156.181C278.506 156.268 278.529 156.362 278.531 156.458C278.532 156.554 278.513 156.649 278.474 156.737C278.435 156.825 278.377 156.903 278.305 156.965C278.232 157.028 278.147 157.075 278.055 157.101C277.433 157.28 276.485 157.502 275.794 157.431C274.358 159.122 274.962 162.206 276.356 164.007L275.097 164.266L272.707 160.933L273.461 164.601L270.552 165.078L269.538 160.415C269.325 159.309 269.378 158.167 269.694 157.085C269.727 156.976 269.768 156.869 269.815 156.765C270.096 156.154 270.535 155.632 271.088 155.252C271.641 154.872 272.287 154.649 272.956 154.607Z" fill="#2F2E41"/>
<path d="M274.896 183.763L274.82 186.448C274.809 186.818 274.939 187.179 275.183 187.457C275.427 187.735 275.768 187.91 276.136 187.947C276.371 187.971 276.609 187.937 276.829 187.848C277.048 187.759 277.243 187.618 277.396 187.437C277.55 187.256 277.657 187.041 277.708 186.809C277.76 186.578 277.754 186.337 277.693 186.108L277.091 183.878L275.358 174.393L275.474 168.84L271.777 168.725L272.471 174.971L274.896 183.763Z" fill="#FFB8B8"/>
<path d="M271.546 169.303C272.886 168.792 274.366 168.792 275.705 169.303L275.474 164.676C275.474 164.185 275.279 163.714 274.932 163.367C274.586 163.02 274.116 162.825 273.626 162.825C273.135 162.825 272.665 163.02 272.319 163.367C271.972 163.714 271.777 164.185 271.777 164.676L271.546 169.303Z" fill="#F0EFFF"/>
</svg>
