<svg width="310" height="211" viewBox="0 0 310 211" fill="none" xmlns="http://www.w3.org/2000/svg">
<path d="M275 2.35065V116.649C275 116.958 274.939 117.264 274.821 117.549C274.703 117.834 274.529 118.093 274.311 118.312C274.092 118.53 273.833 118.703 273.547 118.821C273.261 118.939 272.955 119 272.646 119H39.3506C39.0417 119 38.7357 118.939 38.4503 118.821C38.1649 118.703 37.9056 118.53 37.6873 118.311C37.469 118.093 37.2959 117.834 37.178 117.549C37.0601 117.263 36.9996 116.958 37 116.649V2.35065C36.9996 2.04212 37.0601 1.73652 37.178 1.45134C37.2959 1.16617 37.469 0.907011 37.6873 0.688689C37.9056 0.470368 38.1649 0.297164 38.4503 0.178993C38.7357 0.0608211 39.0417 -2.97587e-07 39.3506 0H272.646C273.27 0 273.869 0.247656 274.311 0.68849C274.752 1.12932 275 1.72722 275 2.35065V2.35065Z" fill="#3F3D56"/>
<path d="M275 1.60333V7H37V1.60333C37 1.1781 37.1654 0.770288 37.4599 0.469605C37.7544 0.168921 38.1539 0 38.5703 0H273.43C273.846 0 274.246 0.168921 274.54 0.469605C274.835 0.770288 275 1.1781 275 1.60333Z" fill="#CBCEDA"/>
<path opacity="0.2" d="M237 83.3237V102.912L75.1471 103L75 63.8427C76.7094 68.8586 80.929 69.7602 88.3581 60.9132C106.514 39.3197 131.194 33.6365 150.298 33.0408C163.372 32.6307 176.416 35.3193 188.866 40.6607C194.036 42.8839 214.471 45.2763 227.956 46.3439C230.404 46.5361 232.689 47.6386 234.357 49.4323C236.026 51.2259 236.955 53.5792 236.961 56.0242L237 83.3237Z" fill="#F0EFFF"/>
<path opacity="0.2" d="M237 64.2778V103H75V94.5821C79.6314 93.4263 96.9541 88.981 105.259 76.7039C115.195 62.005 128.7 58.1393 139.15 57.7346C146.311 57.4529 153.439 59.2757 160.244 62.9148C167.899 67.0072 182.656 71.9446 193.866 57.6115C206.267 41.7633 225.315 54.8239 230.146 59.6253C231.872 61.3219 237 64.2778 237 64.2778Z" fill="#F0EFFF"/>
<path d="M75 23V103H237" stroke="#F0EFFF" stroke-width="2" stroke-miterlimit="10"/>
<path d="M96 103V54" stroke="#F0EFFF" stroke-miterlimit="10"/>
<path d="M115 103V41" stroke="#F0EFFF" stroke-miterlimit="10"/>
<path d="M135 103V35" stroke="#F0EFFF" stroke-miterlimit="10"/>
<path d="M154 103V33" stroke="#F0EFFF" stroke-miterlimit="10"/>
<path d="M174 103V35" stroke="#F0EFFF" stroke-miterlimit="10"/>
<path d="M194 103V43" stroke="#F0EFFF" stroke-miterlimit="10"/>
<path d="M213 103V47" stroke="#F0EFFF" stroke-miterlimit="10"/>
<path d="M95.5 57C97.433 57 99 55.433 99 53.5C99 51.567 97.433 50 95.5 50C93.567 50 92 51.567 92 53.5C92 55.433 93.567 57 95.5 57Z" fill="#F0EFFF"/>
<path d="M115.5 45C117.433 45 119 43.2091 119 41C119 38.7909 117.433 37 115.5 37C113.567 37 112 38.7909 112 41C112 43.2091 113.567 45 115.5 45Z" fill="#F0EFFF"/>
<path d="M134.5 39C136.433 39 138 37.2091 138 35C138 32.7909 136.433 31 134.5 31C132.567 31 131 32.7909 131 35C131 37.2091 132.567 39 134.5 39Z" fill="#F0EFFF"/>
<path d="M154.5 37C156.433 37 158 35.2091 158 33C158 30.7909 156.433 29 154.5 29C152.567 29 151 30.7909 151 33C151 35.2091 152.567 37 154.5 37Z" fill="#F0EFFF"/>
<path d="M174 39C176.209 39 178 37.2091 178 35C178 32.7909 176.209 31 174 31C171.791 31 170 32.7909 170 35C170 37.2091 171.791 39 174 39Z" fill="#F0EFFF"/>
<path d="M193.5 47C195.433 47 197 45.433 197 43.5C197 41.567 195.433 40 193.5 40C191.567 40 190 41.567 190 43.5C190 45.433 191.567 47 193.5 47Z" fill="#F0EFFF"/>
<path d="M213.5 51C215.433 51 217 49.433 217 47.5C217 45.567 215.433 44 213.5 44C211.567 44 210 45.567 210 47.5C210 49.433 211.567 51 213.5 51Z" fill="#F0EFFF"/>
<path d="M2.12149 65.7585C2.10614 66.0902 1.99873 66.4111 1.81131 66.6852C3.34307 66.6393 4.70251 65.6322 6.11555 65.1535C5.86281 66.6393 6.11555 68.4008 6.30702 69.6645C6.4917 70.8902 6.79699 72.0946 7.21842 73.2603C8.18726 77.4229 9.95261 81.5165 11.5342 85.5144C12.2159 87.099 12.7294 88.7509 13.0659 90.4428C14.142 96.8954 10.4198 103.137 9.71519 109.636C9.66152 109.994 9.66152 110.358 9.71519 110.716C9.65185 110.783 9.5954 110.856 9.54669 110.934C6.94653 114.924 7.28352 121.603 7.75071 126.328C8.2179 131.054 9.71519 135.611 11.1282 140.148C11.5492 141.399 11.8782 142.679 12.1124 143.978C12.3369 145.756 12.3729 147.553 12.2196 149.339C11.7524 157.653 10.5806 166.039 11.9631 174.23C12.9702 180.2 15.1683 185.63 15.4095 191.677C15.5918 191.231 15.8811 190.836 16.252 190.528L16.6656 206.409C16.6465 206.557 16.6638 206.707 16.7158 206.847C16.7678 206.988 16.8531 207.113 16.9642 207.213C17.2591 207.4 17.6421 207.213 17.9905 207.163C19.0015 207.04 19.6487 208.139 20.3188 208.902C21.3259 210.05 22.8768 210.594 24.3971 210.713C25.9275 210.77 27.459 210.631 28.9541 210.299C29.6549 210.173 30.3978 210.027 30.9224 209.533C31.1908 209.26 31.391 208.927 31.5067 208.562C31.6225 208.197 31.6506 207.809 31.5887 207.431C31.29 205.091 28.7703 203.759 27.5028 201.764C26.0055 199.405 26.3539 196.245 24.8911 193.86C24.3895 193.044 23.6963 192.355 23.2483 191.508C23.0223 190.987 22.8441 190.446 22.716 189.892C23.1707 190.03 23.6019 190.235 23.995 190.501C23.8572 189.261 23.7155 188.016 23.5776 186.771L23.5164 186.235C23.3287 184.554 23.1334 182.877 22.9956 181.192C22.5245 175.647 24.0984 170.213 22.9956 164.756C22.7658 163.607 23.1334 162.409 23.4742 161.279C25.4105 154.844 26.5915 148.205 26.9935 141.496C27.1313 139.13 27.1275 136.848 27.8857 134.603C28.7741 138.222 31.5198 141.075 33.2469 144.395C34.3114 146.463 34.9739 148.722 36.1342 150.737C36.6933 151.717 37.375 152.651 37.7311 153.716C38.2825 155.382 37.9915 157.189 37.7311 158.928C36.4865 167.927 36.6321 177.087 37.0303 186.163C36.6521 189.635 35.8536 193.049 34.6523 196.33C34.1774 197.624 33.6604 199.133 34.3957 200.301C34.7058 200.729 35.0959 201.093 35.5445 201.373C36.6329 202.147 37.7772 202.84 38.968 203.445C39.3217 203.677 39.7469 203.775 40.1666 203.72C40.4269 203.63 40.6722 203.501 40.8942 203.337C41.8247 202.778 43.0272 202.866 44.0534 203.226C45.0797 203.586 46.0064 204.188 47.0021 204.62C49.0893 205.518 51.4189 205.682 53.6116 205.087C54.5383 204.831 55.5263 204.341 55.8135 203.433C56.1007 202.526 55.5723 201.568 54.8409 200.971C54.1094 200.373 53.2057 200.052 52.3671 199.615C50.5291 198.657 49.0284 197.159 48.0666 195.322C47.4887 194.111 47.0346 192.845 46.711 191.543C46.2668 189.98 45.8239 188.418 45.3822 186.856C45.6344 187.022 45.875 187.204 46.1022 187.403C46.7264 179.668 47.3582 171.91 49.0163 164.327C49.809 160.701 50.843 157.028 50.4409 153.341C50.2303 151.403 49.6252 149.53 49.0508 147.666C47.2637 141.847 45.6988 135.968 44.356 130.027C44.8566 129.468 45.2464 128.818 45.5048 128.113C45.9357 126.801 46.1718 125.434 46.2056 124.053C46.8479 114.745 46.8223 105.403 46.129 96.0989C45.9528 93.74 45.6771 91.2623 44.7504 89.1179H45.2942C44.647 89.1179 43.5901 82.6921 43.4637 81.976C43.031 79.4946 42.7285 76.9978 42.2804 74.5202C42.0621 73.3139 41.8171 72.1077 41.5145 70.9206C41.3078 70.1317 40.4806 65.2339 39.8219 64.6863C39.7511 64.6273 39.6709 64.5807 39.5845 64.5484C39.2541 63.4479 38.5303 62.5074 37.5511 61.9061C36.4904 61.3088 35.2267 61.2896 33.9898 61.3853C33.64 60.8748 33.2903 60.3706 32.9405 59.8727C32.2979 59.0479 31.8065 58.1157 31.4892 57.1194C31.3901 56.7022 31.3311 56.2765 31.313 55.848C31.313 55.5608 31.2939 55.2736 31.2824 54.9864C31.2824 54.8409 31.2824 54.6992 31.2824 54.5537C31.269 54.2674 31.2383 53.9823 31.1905 53.6997V53.6997C31.1522 53.4662 31.0947 53.2402 31.0335 53.0104C31.0067 52.9147 30.9722 52.8152 30.9416 52.7194C30.7654 52.1412 30.5586 51.5706 30.4054 50.9885C29.9344 49.1083 30.1719 47.1361 30.2446 45.1985C30.3174 43.2608 30.191 41.2082 29.0958 39.5922C28.2954 38.4051 27.0126 37.5052 26.5837 36.1458C26.3807 35.4986 26.3922 34.7863 26.0935 34.1736C25.7056 33.4925 25.0859 32.9734 24.3473 32.7108C23.4819 32.3279 21.7433 31.8224 20.8128 32.2704C20.6384 32.357 20.4844 32.4797 20.3609 32.6304C19.3768 32.6802 18.385 32.8142 17.5195 32.3815C16.8532 32.0483 16.3707 31.4165 15.7235 31.0527C14.1918 30.1949 12.2388 31.0527 10.8755 32.1709C8.70842 33.9461 7.12479 36.3316 6.33 39.0178C5.72495 41.0895 5.47987 43.5097 3.74515 44.8155C3.02523 45.3555 2.09851 45.6542 1.57388 46.3779C1.21693 46.967 1.01901 47.6386 0.999474 48.3271C0.819492 49.8972 0.670144 51.5132 1.08755 53.0373C1.40156 54.1861 2.0181 55.2124 2.40104 56.3305C2.91154 57.9126 2.95664 59.6081 2.53096 61.2151C2.10528 62.822 1.22676 64.2728 0 65.3947C0.63283 65.7876 1.39393 65.9181 2.12149 65.7585ZM38.945 112.221C39.4663 111.938 39.9206 111.547 40.2768 111.073C40.633 110.599 40.8828 110.054 41.0091 109.475C41.0512 109.624 41.0856 109.774 41.1239 109.923C41.6152 111.923 41.5155 114.022 40.8367 115.966C40.3284 114.659 39.6949 113.405 38.945 112.221V112.221ZM39.7109 103.742C39.073 102.828 38.5338 101.849 38.1025 100.821C37.5128 99.1662 37.6468 97.3741 37.7885 95.6049C37.8642 94.2697 38.0487 92.9428 38.34 91.6376C38.5091 95.7005 38.9711 99.7459 39.7224 103.742H39.7109Z" fill="url(#paint0_linear)"/>
<path d="M24.8911 33.7217C25.6183 33.9844 26.2271 34.4994 26.6067 35.173C26.8977 35.7819 26.89 36.4904 27.0892 37.1337C27.5104 38.4893 28.7741 39.3854 29.5553 40.5802C30.6199 42.1847 30.7462 44.2296 30.6735 46.1519C30.6007 48.0743 30.371 50.0388 30.8343 51.896C31.0603 52.8036 31.4509 53.6729 31.6002 54.5958C31.7917 55.7216 31.6308 56.8934 31.9104 58.0001C32.2213 58.9887 32.7049 59.9144 33.3387 60.7343L35.8317 64.3799C34.7184 64.1122 33.6225 63.7772 32.5499 63.3766C32.8811 64.4181 33.4965 65.3464 34.3267 66.0572L32.5231 63.8744C32.1576 63.3724 31.7033 62.9416 31.1828 62.603C30.5203 62.2201 29.7391 62.1665 28.9962 62.0171C27.564 61.7261 26.1356 60.9947 25.4349 59.7195C24.5043 58.0039 25.0979 55.8518 24.5809 53.9754C24.198 52.6045 23.2559 51.4748 22.6049 50.2073C21.1344 47.3467 21.2225 43.9692 20.763 40.7793C20.5677 39.4275 20.2652 38.0987 20.2575 36.7125C20.2575 35.7053 20.3571 33.783 21.4063 33.266C22.3292 32.8371 24.0371 33.3579 24.8911 33.7217Z" fill="#3F3D56"/>
<path d="M44.9649 184.849L46.8796 191.654C47.1964 192.948 47.6429 194.206 48.2122 195.411C49.1463 197.231 50.6165 198.722 52.4245 199.68C53.2478 200.113 54.1401 200.446 54.8562 201.028C55.5723 201.61 56.0854 202.587 55.8097 203.475C55.534 204.364 54.5575 204.865 53.6461 205.122C51.4859 205.712 49.1888 205.546 47.1361 204.651C46.1596 204.218 45.2482 203.621 44.2411 203.265C43.234 202.908 42.0468 202.817 41.1355 203.376C40.9172 203.538 40.6759 203.668 40.4194 203.759C40.0062 203.815 39.5867 203.718 39.2399 203.487C38.0679 202.885 36.9427 202.197 35.8739 201.427C35.4379 201.147 35.0607 200.786 34.7633 200.362C34.0357 199.213 34.5489 197.681 35.0122 196.414C36.2433 193.018 37.0448 189.482 37.398 185.887C37.3912 185.728 37.4189 185.569 37.479 185.422C37.5391 185.274 37.6304 185.142 37.7464 185.033C37.9161 184.944 38.1064 184.901 38.2979 184.91L46.4775 184.527" fill="#575A89"/>
<path d="M23.7882 191.662C24.2286 192.5 24.9141 193.193 25.4042 194.001C26.8403 196.372 26.4994 199.512 27.9738 201.855C29.2183 203.839 31.6959 205.168 31.9908 207.492C32.0513 207.867 32.0237 208.251 31.91 208.613C31.7963 208.975 31.5998 209.306 31.336 209.579C30.819 210.058 30.0876 210.2 29.3983 210.322C27.9304 210.654 26.4256 210.793 24.9217 210.736C23.4244 210.617 21.9003 210.066 20.9123 208.932C20.2499 208.166 19.618 207.082 18.6147 207.209C18.2701 207.251 17.8948 207.442 17.6037 207.255C17.4953 207.155 17.4124 207.03 17.3618 206.892C17.3112 206.753 17.2943 206.605 17.3127 206.458L16.8608 189.046C18.3084 188.889 20.8166 188.315 22.222 188.812C23.4321 189.238 23.2368 190.601 23.7882 191.662Z" fill="#575A89"/>
<path d="M38.0796 111.171C41.6103 115.564 42.6557 121.381 43.7892 126.903C45.2495 134.025 47.0442 141.069 49.1734 148.033C49.7401 149.887 50.3222 151.748 50.5404 153.674C50.9234 157.342 49.9201 160.992 49.1389 164.595C47.5114 172.135 46.891 179.848 46.2783 187.537C45.0535 186.493 43.5191 185.882 41.9121 185.797C40.3051 185.712 38.7147 186.158 37.3865 187.066C36.9729 177.795 36.7852 168.429 38.0413 159.23C38.2787 157.503 38.5659 155.707 38.0413 154.053C37.689 152.988 37.0227 152.065 36.4674 151.093C35.3186 149.086 34.6752 146.842 33.6298 144.786C31.9487 141.485 29.249 138.659 28.3759 135.051C27.6291 137.288 27.633 139.555 27.4989 141.906C27.11 148.58 25.9536 155.187 24.0525 161.597C23.7155 162.723 23.3555 163.894 23.5815 165.043C24.6537 170.473 23.1066 175.873 23.5815 181.387C23.7193 183.061 23.907 184.73 24.0908 186.4L24.152 186.936L24.5656 190.643C23.0339 189.597 21.414 189.747 19.5644 189.843C18.9402 189.843 18.3209 189.952 17.734 190.164C17.362 190.314 17.0242 190.538 16.7406 190.821C16.457 191.105 16.2335 191.443 16.0835 191.815C15.8614 185.803 13.6978 180.403 12.7098 174.471C11.3504 166.307 12.4992 157.967 12.9625 149.703C13.1128 147.923 13.0769 146.133 12.8553 144.361C12.6246 143.063 12.3008 141.783 11.8865 140.531C10.5002 136.02 9.02591 131.49 8.56638 126.791C8.10685 122.093 7.77752 115.456 10.3317 111.474C11.1206 110.248 13.0621 110.8 14.2875 110.003C15.253 109.398 16.3151 108.963 17.4276 108.717C24.1252 107.162 31.2326 110.582 38.0796 111.171Z" fill="#3C354C"/>
<path d="M25.9901 56.6637C26.1395 58.3371 26.4918 60.3093 28.0159 61.0139C28.8813 61.3968 29.8846 61.2628 30.819 61.416C32.5882 61.7032 34.0434 63.0626 34.8629 64.6556C35.6824 66.2487 35.9657 68.06 36.1572 69.8406C36.3946 72.0732 36.4712 74.4934 35.2458 76.3736C34.2578 77.9054 32.5652 78.8206 30.7884 79.2916C29.0235 79.7542 27.1784 79.8224 25.3842 79.4915C23.59 79.1606 21.8906 78.4386 20.4069 77.3769C18.9888 76.2705 17.7037 75.0035 16.5775 73.6011C14.0348 70.641 11.4729 67.3975 10.9521 63.5298C10.8908 63.0894 10.8946 62.5571 11.2546 62.2967C11.5034 62.1564 11.7908 62.1 12.0741 62.1359L14.5134 62.178C15.13 62.178 15.8269 62.178 16.2481 61.7147C16.6694 61.2513 16.6311 60.6616 16.6311 60.0948L16.4664 53.0143C16.4303 52.7634 16.489 52.5081 16.6311 52.2982C16.7851 52.1573 16.982 52.0723 17.1902 52.0569C18.5343 51.831 19.9397 52.0569 21.2532 51.6931C22.5054 51.3485 24.4699 49.9124 25.3889 51.3868C26.1548 52.6543 25.8638 55.2353 25.9901 56.6637Z" fill="#FFC1C7"/>
<path opacity="0.1" d="M25.9901 56.6637C26.1395 58.3371 26.4918 60.3093 28.0159 61.0139C28.8813 61.3968 29.8846 61.2628 30.819 61.416C32.5882 61.7032 34.0434 63.0626 34.8629 64.6556C35.6824 66.2487 35.9657 68.06 36.1572 69.8406C36.3946 72.0732 36.4712 74.4934 35.2458 76.3736C34.2578 77.9054 32.5652 78.8206 30.7884 79.2916C29.0235 79.7542 27.1784 79.8224 25.3842 79.4915C23.59 79.1606 21.8906 78.4386 20.4069 77.3769C18.9888 76.2705 17.7037 75.0035 16.5775 73.6011C14.0348 70.641 11.4729 67.3975 10.9521 63.5298C10.8908 63.0894 10.8946 62.5571 11.2546 62.2967C11.5034 62.1564 11.7908 62.1 12.0741 62.1359L14.5134 62.178C15.13 62.178 15.8269 62.178 16.2481 61.7147C16.6694 61.2513 16.6311 60.6616 16.6311 60.0948L16.4664 53.0143C16.4303 52.7634 16.489 52.5081 16.6311 52.2982C16.7851 52.1573 16.982 52.0723 17.1902 52.0569C18.5343 51.831 19.9397 52.0569 21.2532 51.6931C22.5054 51.3485 24.4699 49.9124 25.3889 51.3868C26.1548 52.6543 25.8638 55.2353 25.9901 56.6637Z" fill="black"/>
<path d="M19.8516 56.2003C24.9972 56.2003 29.1685 52.0289 29.1685 46.8833C29.1685 41.7377 24.9972 37.5664 19.8516 37.5664C14.706 37.5664 10.5347 41.7377 10.5347 46.8833C10.5347 52.0289 14.706 56.2003 19.8516 56.2003Z" fill="#FFC1C7"/>
<path d="M29.8693 72.8007C31.3743 72.8275 33.0745 72.4178 33.8021 71.0852C34.3 70.1814 34.2195 69.0824 34.1238 68.0561L33.5839 62.312C35.0467 62.1588 36.6206 62.0286 37.8958 62.7524C39.5922 63.7136 40.1934 65.8427 40.3925 67.7804C40.7487 71.4183 40.1704 75.0907 40.3696 78.7401C40.538 81.8036 41.2465 84.9667 40.3428 87.9039C39.9598 89.1293 39.3241 90.259 38.9106 91.4729C38.3936 93.0046 38.2596 94.6513 38.1447 96.2711C38.003 98.0097 37.869 99.8095 38.451 101.456C38.9374 102.835 39.887 103.995 40.5649 105.286C41.6754 107.422 41.9128 110.302 40.2432 112.037C38.7114 113.622 36.1917 113.687 34.051 113.186C31.9104 112.684 29.8387 111.727 27.6559 111.635C23.7806 111.47 20.3265 113.986 16.5507 114.802C16.0445 114.937 15.5141 114.955 14.9998 114.855C14.5447 114.708 14.1213 114.477 13.7514 114.174L11.6759 112.68C11.2611 112.432 10.9159 112.083 10.6725 111.665C10.4987 111.201 10.4537 110.698 10.5423 110.21C11.2393 103.746 14.8964 97.5425 13.8395 91.1282C13.5109 89.4466 13.0078 87.8039 12.3383 86.2266C9.70754 79.4945 6.55211 72.502 7.57456 65.3449C7.79667 63.7595 8.26385 62.1397 9.35523 60.9679C10.4466 59.7961 12.2924 59.214 13.7054 59.9646C15.1185 60.7151 15.6201 62.3848 16.2443 63.8361C17.4472 66.6574 19.357 69.1211 21.7893 70.9894C22.8156 71.7783 24.0601 72.7854 25.4043 72.8199C26.8058 72.8697 28.3376 72.7701 29.8693 72.8007Z" fill="#73728C"/>
<path d="M43.3641 87.2759C45.6235 89.7842 46.0677 93.403 46.3166 96.7652C47.0014 106.016 47.0257 115.304 46.3894 124.559C46.357 125.932 46.1261 127.292 45.7039 128.599C45.2214 129.882 44.3176 131.069 43.0463 131.582C42.2306 131.911 41.0933 131.823 40.7257 131.023C40.3887 130.292 40.8903 129.491 41.2694 128.764C42.1403 127.129 42.4318 125.247 42.0966 123.425C41.6332 123.762 41.4686 124.371 41.3307 124.93L40.5916 128.04C39.5922 127.894 39.2169 126.673 39.0599 125.677C38.7688 123.87 38.4893 121.943 39.2131 120.262C39.596 119.366 40.247 118.604 40.6338 117.708C41.6103 115.456 41.9932 112.883 41.3652 110.509C39.2481 102.493 38.3242 94.2093 38.6233 85.9241C40.0736 86.7454 41.6988 87.2088 43.3641 87.2759V87.2759Z" fill="#FFC1C7"/>
<path d="M45.4971 89.7995C42.7163 89.8275 39.9491 90.1927 37.2562 90.8871C36.9001 89.1332 37.0724 87.3181 37.2562 85.5259L38.4433 73.2718C38.5314 72.3642 38.3629 64.0276 40.1206 65.502C40.7678 66.0457 41.5835 70.9167 41.7864 71.7018C42.0928 72.8812 42.334 74.076 42.5523 75.2784C42.9927 77.7407 43.2914 80.226 43.7011 82.6921C43.8198 83.4236 44.8614 89.7995 45.4971 89.7995Z" fill="#73728C"/>
<path d="M23.4053 35.039C23.4167 34.7475 23.3507 34.4581 23.2138 34.2004C23.0926 34.0486 22.9411 33.9236 22.7691 33.8333C22.5971 33.743 22.4082 33.6894 22.2144 33.6757C20.8664 33.4651 19.3921 34.0089 18.1782 33.3924C17.5195 33.0592 17.0523 32.435 16.4128 32.0712C14.8811 31.2173 12.9664 32.0712 11.6452 33.1856C9.51139 34.9561 7.95629 37.3247 7.18014 39.9866C6.58276 42.0468 6.3415 44.4555 4.63742 45.7537C3.92898 46.2898 3.01758 46.5885 2.50061 47.3084C2.15273 47.8882 1.95894 48.5473 1.93769 49.2231C1.76154 50.7855 1.61219 52.3939 2.02194 53.9103C2.33212 55.0591 2.93717 56.0701 3.31628 57.1806C3.82378 58.7569 3.87029 60.4453 3.45033 62.0471C3.03038 63.6489 2.16145 65.0973 0.945877 66.2218C1.56742 66.6109 2.31694 66.7402 3.0329 66.5818C3.01681 66.911 2.91231 67.2298 2.73038 67.5047C4.90931 67.4357 6.80486 65.3104 8.93784 65.7738C10.5692 66.1261 11.4767 67.8072 12.6907 68.9522C14.2569 70.4227 16.6886 71.0392 18.653 70.1661C20.6175 69.293 21.8123 66.8116 20.9775 64.8279C20.0278 62.5724 17.0983 61.6802 16.0835 59.4668C15.2985 57.7435 15.8805 55.7254 15.7006 53.8375C15.5589 52.2177 14.8581 50.7051 14.4215 49.135C13.985 47.565 13.8433 45.7728 14.7317 44.4096C15.6738 42.9582 17.4774 42.3953 19.1202 41.8592C22.8309 40.6529 23.5432 38.7842 23.4053 35.039Z" fill="#3F3D56"/>
<path d="M21.1153 68.5348C21.3796 67.2328 21.6438 65.8542 21.1728 64.6058C20.3035 62.3082 17.4506 61.5691 15.4784 60.0795C14.3359 59.2111 13.4581 58.0415 12.9434 56.702C12.5872 55.7599 12.5375 54.4656 13.4182 53.9831C13.761 53.8223 14.1401 53.7549 14.5173 53.7878C17.5808 53.8605 20.4107 55.5302 22.7658 57.51C24.1367 58.6588 25.4464 59.9761 26.1204 61.6304C26.5482 62.8227 26.806 64.0692 26.8862 65.3334L27.3802 69.5036C27.7041 71.8974 27.8958 74.3072 27.9546 76.7221C27.9561 78.1035 27.8692 79.4837 27.6942 80.854C27.5717 81.8267 27.3879 82.8338 26.8173 83.6303C25.7566 85.1161 23.7078 85.4493 21.8812 85.499C21.1905 85.5384 20.4975 85.4947 19.8172 85.3688C16.7804 84.7102 14.4751 80.4557 16.7766 77.8288C17.7531 76.7144 19.2159 76.6799 19.775 75.1482C20.495 73.1148 20.6788 70.6525 21.1153 68.5348Z" fill="#FFC1C7"/>
<path d="M18.6454 69.2662L21.0617 73.1837C21.2055 73.3856 21.3059 73.6151 21.3566 73.8577C21.4217 74.367 21.0426 74.8188 20.7401 75.2362C18.6722 78.0547 19.2083 81.9377 19.821 85.3765C16.5229 84.3346 13.5856 82.3834 11.3468 79.7469C9.10798 77.1105 7.65847 73.8958 7.16483 70.4725C6.86231 68.4237 6.37597 65.05 8.19493 63.7174C12.5566 60.5007 16.5928 65.9078 18.6454 69.2662Z" fill="#73728C"/>
<path d="M30.819 61.4159C29.8847 61.2627 28.8814 61.4159 28.0159 61.0138C26.4841 60.3092 26.1395 58.3332 25.9902 56.6636C25.9902 56.5066 25.971 56.3381 25.9633 56.1581C26.5098 55.5982 27.103 55.0857 27.7364 54.6264C28.3078 54.2917 28.9155 54.0231 29.5477 53.826L31.2403 53.2325C31.4019 53.6806 31.5299 54.1401 31.6232 54.6072C31.8147 55.7331 31.6538 56.9049 31.9334 58.0116C32.2443 59.0002 32.7279 59.9259 33.3618 60.7458L35.8547 64.3914C35.4028 64.2841 34.9548 64.1654 34.5106 64.0352C33.6413 62.7141 32.3508 61.6648 30.819 61.4159Z" fill="#3F3D56"/>
<path d="M305.941 77.5454C305.496 75.3894 304.665 73.333 304.164 71.1962C303.958 70.0805 303.68 68.9792 303.333 67.8991C303.155 67.4297 302.934 66.9783 302.67 66.5512L302.908 66.3291C302.119 64.9964 302.088 63.3268 301.717 61.8104C301.395 60.5045 300.756 59.3098 300.369 58.0231C299.833 56.2386 299.76 54.2243 298.653 52.75C298.217 52.1679 297.646 51.7122 297.16 51.1723C296.601 50.5558 296.16 49.832 295.594 49.2269C293.947 47.4731 291.465 46.9293 289.118 46.6766C286.771 46.4238 284.343 46.4277 282.179 45.4512C281.272 45.0414 280.314 44.4555 279.365 44.5244C278.831 44.0102 278.34 43.4531 277.898 42.8587C277.176 41.9836 276.52 41.0555 275.937 40.0823C276.394 39.3099 276.747 38.4807 276.987 37.6162L277.144 37.5052C277.76 37.038 278.292 36.4291 278.897 35.9734C279.43 35.5905 280.115 35.1884 280.173 34.5067C280.23 33.8251 279.613 33.3043 279.231 32.7414C277.848 30.7233 279.376 27.564 277.959 25.5689C277.251 24.5694 276.014 24.1903 274.896 23.704C273.364 23.03 271.997 22.0612 270.477 21.4064C268.956 20.7515 267.199 20.3954 265.667 21.0234C262.802 22.2105 261.772 26.2888 258.862 27.3534C258.546 27.4173 258.262 27.586 258.054 27.8321C257.698 28.4142 257.227 31.8415 257.311 32.5499C257.422 33.4881 257.648 33.9515 258.295 34.2808C258.295 34.4799 258.295 34.6829 258.295 34.8858C258.295 39.7607 261.673 43.8083 266.126 44.6432C266.553 45.093 266.917 45.5994 267.206 46.1481C267.432 46.7296 267.561 47.344 267.589 47.9671C267.429 47.8906 267.253 47.8538 267.076 47.8599C266.793 47.9002 266.527 48.0219 266.312 48.2102C266.096 48.3985 265.94 48.6453 265.862 48.9206C265.703 49.483 265.64 50.0681 265.674 50.6515C265.699 50.8316 265.681 51.0149 265.623 51.187C265.564 51.3591 265.466 51.5153 265.337 51.6433C265.197 51.728 265.038 51.7779 264.874 51.7888C264.283 51.8996 263.683 51.9611 263.082 51.9726C262.086 51.9726 261.018 51.7237 260.141 52.2101C259.264 52.6964 258.866 53.7418 258.445 54.6877C257.834 56.0411 257.031 57.2988 256.059 58.4213C254.987 59.6621 253.654 60.8377 253.351 62.4805C253.348 62.5187 253.348 62.5572 253.351 62.5954C252.513 62.9783 251.655 63.8974 251.054 64.3607C249.901 65.2534 248.792 66.203 247.734 67.206C246.658 68.2438 245.206 69.5304 244.54 70.9167C244.2 71.5096 243.748 72.03 243.207 72.4484C242.116 73.1569 240.707 72.7816 239.478 72.3833C236.069 71.2843 232.642 70.1738 229.464 68.4927C229.307 68.3845 229.117 68.3369 228.928 68.3586C228.824 68.3913 228.731 68.4523 228.659 68.5348C228.634 68.4949 228.605 68.4566 228.575 68.4199C227.717 67.4932 226.369 67.4319 225.895 66.015C225.763 65.5655 225.669 65.1056 225.615 64.6403C225.315 63.2857 224.829 61.979 224.171 60.7573C224.075 60.5053 223.911 60.2851 223.697 60.1216C223.495 60.024 223.263 60.0073 223.05 60.0749C222.836 60.1426 222.656 60.2894 222.548 60.4854C222.328 60.8858 222.242 61.3461 222.303 61.7989C222.333 62.2967 222.406 62.8749 222.061 63.2311C221.923 63.3614 221.755 63.456 221.571 63.5068C220.465 63.8667 219.247 63.5451 218.213 63.0051C217.179 62.4652 216.248 61.7146 215.226 61.1441C214.686 60.8481 214.128 60.5846 213.556 60.3552C212.967 60.1101 212.147 59.9493 211.818 60.5122C211.554 60.9641 211.818 61.5423 212.124 61.9712C212.637 62.7118 213.235 63.3904 213.905 63.9931C215.896 65.7738 218.404 66.7656 220.74 68.0063C222.777 69.0897 224.701 70.3724 226.484 71.8357C226.415 72.0585 226.373 72.2885 226.358 72.5212C226.359 72.9734 226.454 73.4205 226.637 73.8338C226.821 74.2472 227.088 74.6179 227.423 74.9222C228.084 75.5105 228.829 75.9982 229.632 76.3697C233.686 78.4759 237.771 80.5272 241.886 82.5236C242.148 82.6756 242.439 82.7696 242.74 82.7993C243.575 82.8185 244.107 81.9147 244.777 81.3939C245.448 80.8731 246.309 80.7276 247.117 80.4557C248.553 79.9617 249.798 79.0235 251.027 78.0968L254.944 75.1329C256.917 73.6432 258.939 72.0693 260.593 70.2312C260.802 70.6702 261.099 71.0613 261.466 71.38C261.144 72.0961 261.814 72.839 261.975 73.6126C262.032 74.1211 262.046 74.6335 262.017 75.1443C262.086 75.8899 262.214 76.6288 262.4 77.3539C262.589 78.5378 262.676 79.7357 262.661 80.9344C262.661 82.2709 262.703 83.615 262.722 84.9476C262.749 86.6785 262.776 88.4285 262.412 90.1173C261.918 92.4149 260.708 94.5977 260.803 96.9566C260.873 97.3968 260.829 97.8474 260.677 98.2662C259.678 100.181 258.889 102.291 257.813 104.175C257.495 104.633 257.237 105.13 257.047 105.653C256.913 106.2 256.967 106.776 257.2 107.288C256.773 108.053 256.533 108.907 256.499 109.781C256.426 111.945 257.296 113.994 257.713 116.127C258.096 118.083 258.096 120.09 258.154 122.085C258.448 131.421 260.275 140.65 260.654 149.982C260.833 154.285 260.705 158.595 260.271 162.88C259.992 165.645 259.578 168.402 259.425 171.182C258.985 179.07 260.631 186.882 262.266 194.618C262.761 194.037 263.455 193.661 264.212 193.565C264.013 194.331 263.748 195.326 263.473 196.061C263.073 196.117 262.69 196.255 262.347 196.467C261.393 197.076 261.068 198.325 260.512 199.336C259.299 201.538 256.913 202.667 254.956 204.18C254.018 204.904 253.072 206.01 253.367 207.186C256.756 208.17 260.447 209.043 263.706 207.688C265.031 207.14 266.272 206.232 267.693 206.186C268.772 206.152 269.875 206.623 270.909 206.301C271.166 206.232 271.39 206.077 271.545 205.861C271.667 205.625 271.725 205.361 271.713 205.095C271.802 203.295 271.794 201.491 271.69 199.692C271.602 198.16 271.759 197.011 270.515 196.797C270.205 196.027 269.976 195.228 269.829 194.411C269.829 194.262 269.795 194.105 269.776 193.948C270.118 193.95 270.461 193.922 270.798 193.863C271.007 193.828 271.213 193.779 271.415 193.718C271.35 193.454 271.292 193.186 271.239 192.921C271.131 192.389 271.047 191.857 270.978 191.325C270.909 190.792 270.859 190.252 270.821 189.716C270.821 189.444 270.791 189.176 270.779 188.904C270.756 188.364 270.748 187.824 270.752 187.281C270.756 186.737 270.752 186.197 270.791 185.653C270.829 185.109 270.844 184.566 270.882 184.022C270.974 182.662 271.108 181.303 271.242 179.955C271.633 175.995 272.026 172.038 272.422 168.084C272.537 166.897 272.655 165.706 272.671 164.515C272.685 163.802 272.652 163.09 272.571 162.382C272.368 160.666 271.828 158.935 271.805 157.243C271.798 156.96 271.809 156.678 271.836 156.397C271.863 156.113 271.91 155.831 271.978 155.554C272.012 155.401 272.058 155.248 272.104 155.098C272.2 154.796 272.307 154.501 272.403 154.198C272.452 154.049 272.498 153.896 272.541 153.743C272.697 153.096 272.791 152.435 272.82 151.771C272.82 151.549 272.847 151.326 272.858 151.104L273.329 141.768C273.406 140.271 273.532 138.655 274.118 137.318C274.37 136.729 274.739 136.196 275.202 135.752C275.083 135.434 275.202 134.898 275.531 134.814C275.917 139.58 275.87 144.371 275.39 149.128C275.221 150.622 274.972 152.104 274.903 153.605C274.758 156.914 275.489 160.188 275.746 163.489C276.002 166.79 275.746 170.19 275.746 173.541C275.719 179.304 276.355 185.048 276.987 190.773L277.369 191.026C277.369 191.531 277.427 192.083 277.419 192.558C277.407 192.723 277.423 192.889 277.469 193.048H277.308C276.938 193.079 276.58 193.2 276.267 193.4C275.953 193.6 275.693 193.874 275.508 194.197C275.129 194.852 274.854 195.563 274.693 196.303C274.505 196.849 274.427 197.427 274.463 198.003C274.608 199.094 275.535 199.918 275.78 200.99C276.228 202.931 274.325 205.026 275.191 206.811C275.742 207.959 277.132 208.277 278.346 208.476C280.199 208.779 282.309 209.02 283.768 207.791C284.165 207.447 284.482 207.021 284.697 206.542C284.911 206.063 285.019 205.543 285.013 205.018C285.013 203.617 284.182 202.369 283.818 201.021C283.305 199.129 284.071 196.586 283.263 194.84C283.197 194.656 283.096 194.487 282.964 194.342H283.24C283.175 193.703 283.11 193.059 283.041 192.427L283.684 192.098C284.347 191.765 285.113 191.512 285.802 191.773C285.545 188.483 285.472 184.849 286.231 181.648C286.82 179.12 287.877 176.723 288.367 174.173C288.75 172.07 288.777 169.911 288.785 167.77C288.785 163.795 288.785 159.793 288.119 155.899C287.851 154.336 287.468 152.736 287.759 151.173C287.95 150.143 288.417 149.193 288.693 148.182C289.336 145.82 288.865 143.281 289.248 140.857C290.16 135.067 290.642 129.024 291.335 123.207C291.681 119.911 291.798 116.594 291.688 113.281V113.243L293.062 110.562C294.046 108.648 295.046 106.702 295.643 104.646C295.85 104.935 296.016 105.251 296.137 105.584L302.18 95.5436C302.572 94.9496 302.883 94.3056 303.103 93.6289C303.241 93.1425 303.287 92.6332 303.39 92.1392C303.662 90.8564 304.313 89.6999 304.834 88.5051C306.31 85.0499 306.697 81.2261 305.941 77.5454V77.5454ZM296.899 82.5849C296.618 84.2347 296.235 85.8653 295.751 87.4673C294.954 90.2169 294.031 92.9204 293.108 95.6278L292.316 97.9254C292.042 98.8505 291.631 99.7296 291.098 100.533C290.976 100.734 290.867 100.943 290.772 101.157C289.953 98.0939 290.841 94.6475 290.654 91.381C290.512 88.911 289.746 86.4028 290.32 84.0094C290.703 82.3972 291.668 81.011 292.346 79.5022C292.978 78.1006 293.373 76.5727 294.085 75.2209C294.085 75.2477 294.085 75.2707 294.112 75.2937C294.745 76.9585 295.504 78.5728 296.382 80.1226C296.629 80.4727 296.817 80.8607 296.938 81.2714C297.017 81.7092 297.008 82.1583 296.911 82.5925L296.899 82.5849Z" fill="url(#paint1_linear)"/>
<path d="M225.795 66.0035C225.657 65.5535 225.56 65.0922 225.504 64.625C225.255 63.2502 224.619 61.9827 223.995 60.7304C223.896 60.474 223.724 60.2518 223.501 60.0909C223.293 59.9982 223.058 59.9839 222.84 60.0508C222.622 60.1176 222.435 60.2611 222.314 60.4547C222.088 60.8542 221.997 61.3167 222.058 61.772C222.092 62.2775 222.169 62.8558 221.813 63.2119C221.664 63.3434 221.487 63.4379 221.296 63.4876C220.147 63.8514 218.872 63.5259 217.788 62.986C216.704 62.446 215.739 61.6878 214.671 61.1172C214.106 60.821 213.524 60.5576 212.928 60.3284C212.312 60.0795 211.458 59.9186 211.113 60.4854C210.837 60.9372 211.113 61.5155 211.431 61.9482C211.968 62.6953 212.593 63.3754 213.292 63.9739C215.368 65.7623 217.991 66.7579 220.43 68.0025C223.163 69.3972 225.71 71.1288 228.012 73.1569C228.235 72.8921 228.369 72.5639 228.395 72.2186C228.579 71.2421 229.387 69.2662 228.571 68.4199C227.679 67.4893 226.289 67.4281 225.795 66.0035Z" fill="#A0616A"/>
<path d="M264.2 197.501C266.245 199.097 268.835 199.823 271.411 199.523C271.947 199.458 272.56 199.267 272.736 198.757C272.8 198.448 272.765 198.127 272.636 197.838C272.231 196.875 271.92 195.875 271.706 194.851C271.572 193.921 271.606 192.814 270.848 192.255C269.753 191.447 266.888 191.489 266.176 192.741C266.008 193.01 264.935 198.118 264.2 197.501Z" fill="#3C354C"/>
<path d="M279.629 192.983C279.602 193.084 279.598 193.19 279.616 193.293C279.634 193.396 279.674 193.494 279.733 193.581C279.792 193.667 279.869 193.74 279.959 193.794C280.049 193.848 280.149 193.882 280.253 193.894C282.012 194.439 283.835 194.744 285.675 194.802L285.293 191.118C285.3 191.035 285.289 190.952 285.262 190.875C285.234 190.797 285.189 190.726 285.131 190.667C285.074 190.608 285.004 190.562 284.926 190.533C284.849 190.504 284.766 190.492 284.684 190.497C283.627 190.321 281.406 189.605 280.391 189.973C279.25 190.386 279.652 191.884 279.629 192.983Z" fill="#3C354C"/>
<path d="M268.933 46.0447C269.23 46.8178 269.377 47.6405 269.366 48.4687C269.462 51.4365 268.952 54.6417 266.885 56.7709C269.205 56.0777 271.813 56.4951 274.003 55.4612C275.018 54.9825 275.872 54.2205 276.822 53.6269C278.514 52.57 280.487 52.0569 282.248 51.1148C284.01 50.1728 285.641 48.5836 285.741 46.5923C284.975 45.7881 283.745 45.6733 282.742 45.1869C281.662 44.6585 280.862 43.6935 280.1 42.7629C279.201 41.7371 278.413 40.619 277.749 39.4275C277.082 38.2272 276.813 36.8459 276.983 35.4832C275.026 35.8355 273.605 37.5434 271.756 38.2749C271.036 38.5582 270.258 38.6884 269.558 39.0139C268.558 39.4735 266.532 41.0358 266.494 42.2612C266.498 43.5977 268.413 44.8652 268.933 46.0447Z" fill="#A0616A"/>
<path opacity="0.1" d="M268.933 46.0447C269.23 46.8178 269.377 47.6405 269.366 48.4687C269.462 51.4365 268.952 54.6417 266.885 56.7709C269.205 56.0777 271.813 56.4951 274.003 55.4612C275.018 54.9825 275.872 54.2205 276.822 53.6269C278.514 52.57 280.487 52.0569 282.248 51.1148C284.01 50.1728 285.641 48.5836 285.741 46.5923C284.975 45.7881 283.745 45.6733 282.742 45.1869C281.662 44.6585 280.862 43.6935 280.1 42.7629C279.201 41.7371 278.413 40.619 277.749 39.4275C277.082 38.2272 276.813 36.8459 276.983 35.4832C275.026 35.8355 273.605 37.5434 271.756 38.2749C271.036 38.5582 270.258 38.6884 269.558 39.0139C268.558 39.4735 266.532 41.0358 266.494 42.2612C266.498 43.5977 268.413 44.8652 268.933 46.0447Z" fill="black"/>
<path d="M294.127 123.383C293.403 129.219 292.902 135.285 291.948 141.094C291.565 143.526 292.04 146.072 291.37 148.447C291.083 149.461 290.604 150.415 290.393 151.445C290.091 153.015 290.489 154.62 290.776 156.19C291.481 160.115 291.481 164.132 291.469 168.122C291.469 170.27 291.469 172.438 291.037 174.548C290.524 177.11 289.421 179.526 288.804 182.046C288.011 185.263 288.088 188.908 288.356 192.209C287.636 191.949 286.824 192.209 286.143 192.535C285.461 192.86 284.772 193.3 284.01 193.35C282.98 193.446 282.011 192.902 281.122 192.374C280.441 191.972 279.847 191.608 279.169 191.194C278.507 185.45 277.844 179.683 277.871 173.897C277.871 170.535 278.135 167.165 277.871 163.81C277.607 160.456 276.837 157.208 276.994 153.892C277.067 152.383 277.324 150.897 277.496 149.4C278.063 144.552 277.986 139.903 277.645 135.036C277.312 135.12 277.178 135.656 277.301 135.974C276.814 136.415 276.423 136.951 276.152 137.548C275.539 138.888 275.409 140.512 275.328 142.013L274.834 151.384C274.821 152.275 274.711 153.163 274.505 154.03C274.333 154.646 274.072 155.229 273.915 155.849C273.352 158.093 274.256 160.406 274.543 162.7C274.777 164.614 274.578 166.529 274.383 168.421L273.153 180.338C272.705 184.673 272.269 189.1 273.153 193.358C273.211 193.622 273.268 193.89 273.337 194.158C273.126 194.219 272.911 194.268 272.694 194.304C271.932 194.411 271.158 194.411 270.396 194.304C269.684 194.231 268.964 194.108 268.259 194.024C266.567 193.833 264.878 193.76 263.756 195.039C262.048 187.296 260.332 179.434 260.788 171.519C260.949 168.731 261.378 165.962 261.673 163.186C262.132 158.889 262.27 154.564 262.086 150.246C261.703 140.88 259.789 131.616 259.471 122.246C259.406 120.247 259.413 118.229 259.015 116.268C258.579 114.143 257.671 112.056 257.744 109.9C257.817 107.744 259.39 105.351 261.573 105.469C267.597 105.802 273.1 102.479 279.108 101.912C281.835 101.651 284.607 101.265 287.307 101.751C290.007 102.237 292.695 103.765 293.756 106.293C294.33 107.667 294.376 109.191 294.418 110.677C294.541 114.92 294.652 119.175 294.127 123.383Z" fill="#575A89"/>
<path d="M263.867 196.896C262.871 197.509 262.531 198.761 261.952 199.776C260.685 201.986 258.196 203.119 256.151 204.636C255.17 205.367 254.182 206.474 254.493 207.657C258.031 208.641 261.883 209.518 265.295 208.159C266.678 207.607 267.976 206.696 269.458 206.65C270.588 206.615 271.756 207.09 272.816 206.765C273.084 206.702 273.32 206.546 273.483 206.324C273.607 206.089 273.668 205.825 273.659 205.558C273.751 203.751 273.742 201.939 273.632 200.132C273.525 198.367 273.762 197.118 271.748 197.195C269.435 197.295 265.874 195.659 263.867 196.896Z" fill="#CBCEDA"/>
<path d="M280.824 193.756C280.405 193.589 279.963 193.489 279.514 193.461C279.132 193.491 278.763 193.611 278.436 193.811C278.109 194.01 277.834 194.284 277.634 194.61C277.238 195.264 276.951 195.978 276.784 196.724C276.588 197.27 276.507 197.85 276.546 198.428C276.695 199.523 277.664 200.343 277.921 201.423C278.384 203.372 276.389 205.474 277.301 207.266C277.879 208.415 279.33 208.737 280.598 208.936C282.535 209.242 284.737 209.484 286.261 208.247C286.671 207.91 287 207.485 287.225 207.005C287.45 206.525 287.566 206.001 287.563 205.47C287.54 204.061 286.694 202.809 286.311 201.453C285.779 199.539 286.579 197.004 285.733 195.253C285.009 193.756 282.367 194.25 280.824 193.756Z" fill="#CBCEDA"/>
<path d="M269.58 44.6968C275.077 44.6968 279.533 40.2409 279.533 34.7442C279.533 29.2475 275.077 24.7916 269.58 24.7916C264.084 24.7916 259.628 29.2475 259.628 34.7442C259.628 40.2409 264.084 44.6968 269.58 44.6968Z" fill="#A0616A"/>
<path d="M274.857 51.0536C273.784 50.5972 272.59 50.507 271.461 50.797L270.553 49.2155C270.17 48.5185 269.6 47.7297 268.799 47.7603C268.508 47.798 268.233 47.9188 268.008 48.1082C267.784 48.2977 267.618 48.5478 267.532 48.8287C267.365 49.391 267.298 49.978 267.333 50.5634C267.359 50.7457 267.341 50.9317 267.28 51.1057C267.22 51.2796 267.118 51.4364 266.984 51.5629C266.835 51.6444 266.671 51.694 266.502 51.7084C265.883 51.8174 265.257 51.8788 264.629 51.8922C263.587 51.8922 262.473 51.6395 261.565 52.1296C260.658 52.6198 260.237 53.6614 259.796 54.6188C259.154 55.9821 258.316 57.2439 257.307 58.3639C256.185 59.6085 254.795 60.7879 254.477 62.4346C254.343 63.1353 254.979 63.6561 255.484 64.1616C257.495 66.1567 260.298 67.3822 261.788 69.7947C262.136 70.3576 262.419 70.9933 262.956 71.38C262.622 72.1038 263.339 72.8467 263.488 73.6241C263.547 74.1325 263.561 74.645 263.53 75.1558C263.596 75.9042 263.725 76.6458 263.913 77.3731C264.109 78.5601 264.2 79.762 264.185 80.965L264.25 84.9936C264.277 86.7321 264.304 88.486 263.924 90.1824C263.407 92.4801 262.144 94.6819 262.243 97.0447C262.317 97.4876 262.272 97.9421 262.113 98.362C261.068 100.277 260.244 102.398 259.122 104.29C258.802 104.749 258.544 105.249 258.356 105.776C258.058 106.867 258.67 108.05 259.574 108.732C260.478 109.414 261.619 109.693 262.73 109.904C273.046 111.88 283.757 109.502 293.507 105.596C293.763 105.515 294.001 105.385 294.207 105.213C294.92 104.52 294.361 103.352 293.955 102.448C292.423 99.082 293.644 95.1721 293.426 91.4959C293.281 89.0183 292.476 86.5177 293.082 84.0975C293.464 82.4815 294.487 81.0876 295.195 79.5788C295.961 77.9436 296.39 76.1323 297.393 74.6389C298.145 73.6125 299.024 72.686 300.009 71.8817L306.232 66.3367C305.408 65.0003 305.374 63.323 304.987 61.8027C304.65 60.4931 303.98 59.2906 303.578 58.0039C303.019 56.2118 302.942 54.1745 301.786 52.7079C301.33 52.122 300.736 51.6663 300.227 51.1263C299.645 50.506 299.186 49.7822 298.592 49.1733C296.873 47.4118 294.28 46.8527 291.833 46.6153C289.386 46.3779 286.855 46.3664 284.588 45.3861C283.477 44.9074 282.29 44.1836 281.141 44.5436C280.23 44.827 279.644 45.7192 279.273 46.6038C278.901 47.4884 278.641 48.4419 278.032 49.181C277.281 50.0618 275.953 50.6438 274.857 51.0536Z" fill="#3C354C"/>
<path d="M245.245 70.9205C244.884 71.5172 244.411 72.0376 243.851 72.4523C242.702 73.1607 241.243 72.7854 239.96 72.3872C236.403 71.2805 232.822 70.1699 229.502 68.4812C229.338 68.3711 229.139 68.3235 228.943 68.3472C228.789 68.3965 228.655 68.493 228.56 68.6229C228.038 69.2017 227.558 69.8172 227.124 70.4648C226.666 71.0655 226.377 71.7784 226.289 72.5289C226.292 72.9859 226.392 73.4372 226.583 73.8525C226.774 74.2678 227.051 74.6377 227.396 74.9376C228.089 75.5284 228.862 76.0172 229.693 76.3889C233.929 78.5027 238.192 80.5617 242.484 82.5657C242.759 82.7186 243.063 82.8126 243.376 82.8414C244.249 82.8606 244.804 81.953 245.501 81.4322C246.198 80.9114 247.113 80.7659 247.944 80.4902C249.445 79.9962 250.751 79.0542 252.03 78.1236L256.12 75.152C259.704 72.548 263.469 69.7104 265.035 65.5785L260.057 63.9395C258.563 63.4455 256.993 62.695 255.442 62.4078C254.294 62.1857 252.911 63.7021 252.049 64.3493C250.838 65.2475 249.674 66.2074 248.561 67.2251C247.458 68.2361 245.942 69.5304 245.245 70.9205Z" fill="#3C354C"/>
<path d="M292.365 103.612C290.96 104.171 289.367 103.329 287.877 103.578C287.179 103.734 286.513 104.01 285.909 104.393L281.559 106.825C281.291 106.97 281 107.327 281.233 107.518C281.301 107.563 281.379 107.589 281.459 107.595C282.911 107.782 284.266 106.898 285.71 106.653C286.344 106.566 286.986 106.542 287.625 106.58C287.73 106.574 287.836 106.589 287.935 106.626C288.041 106.686 288.127 106.776 288.184 106.884C288.241 106.991 288.266 107.113 288.256 107.235C288.256 107.48 288.184 107.717 288.176 107.962C288.22 108.527 288.441 109.063 288.808 109.494C290.192 111.481 291.729 113.358 293.403 115.108C293.828 114.571 294.195 113.991 294.498 113.377L295.931 110.696C297.416 107.932 298.937 105.063 299.174 101.935C298.102 101.594 296.111 100.464 295.004 101.058C293.897 101.651 293.641 103.202 292.365 103.612Z" fill="#A0616A"/>
<path d="M268.321 33.155C271.124 33.4536 273.682 34.7786 276.19 36.0806C275.761 36.7546 276.305 37.7234 277.067 37.9532C277.829 38.183 278.664 37.8575 279.311 37.3864C279.958 36.9154 280.49 36.3066 281.141 35.8547C281.701 35.4717 282.413 35.0658 282.474 34.3842C282.535 33.7026 281.892 33.1779 281.49 32.6112C280.046 30.5854 281.643 27.4147 280.165 25.4119C279.422 24.4086 278.132 24.0295 276.987 23.5393C275.401 22.8654 273.957 21.8927 272.368 21.2226C270.779 20.5524 268.949 20.2039 267.348 20.8396C264.353 22.0306 263.281 26.1242 260.241 27.1926C259.913 27.257 259.616 27.4264 259.394 27.6751C259.011 28.2572 258.533 31.6998 258.628 32.4082C258.774 33.5915 259.099 34.0281 260.263 34.3804C262.753 35.1233 265.655 32.8677 268.321 33.155Z" fill="#3F3D56"/>
<path d="M304.612 64.9083C305.512 65.7266 306.213 66.7406 306.661 67.8723C307.024 68.9542 307.313 70.0597 307.526 71.1809C308.051 73.333 308.916 75.3932 309.379 77.553C310.168 81.2432 309.766 85.0886 308.231 88.5357C307.687 89.7382 307.005 90.8946 306.722 92.1852C306.615 92.6791 306.565 93.1923 306.423 93.6786C306.189 94.3574 305.864 95.0014 305.458 95.5933L299.178 105.699C298.937 105.109 298.573 104.578 298.111 104.139C297.649 103.701 297.099 103.366 296.497 103.156C295.289 102.749 293.993 102.671 292.745 102.93C293.212 102.195 293.418 101.372 293.893 100.633C294.154 100.24 294.393 99.8338 294.609 99.4151C294.823 98.9606 295.01 98.4939 295.168 98.0173L295.992 95.6929C296.957 92.9778 297.907 90.2628 298.753 87.5056C299.263 85.8999 299.667 84.2625 299.963 82.604C300.055 82.1823 300.066 81.7468 299.994 81.3211C299.865 80.9012 299.669 80.5053 299.411 80.1493C298.498 78.5993 297.705 76.981 297.041 75.309C296.543 74.141 296.042 72.8275 296.49 71.6404C296.775 71.0119 297.196 70.4547 297.723 70.0091C299.81 68.0437 302.123 66.3316 304.612 64.9083V64.9083Z" fill="#3C354C"/>
<path opacity="0.1" d="M272.698 194.296L273.157 193.35C272.276 189.1 272.713 184.673 273.157 180.33L274.386 168.413C274.582 166.498 274.769 164.584 274.547 162.692C274.26 160.394 273.356 158.097 273.919 155.841C274.076 155.221 274.337 154.639 274.509 154.022C274.715 153.155 274.825 152.268 274.838 151.376L275.332 142.006C275.413 140.504 275.543 138.881 276.156 137.541V137.284L274.578 123.705L270.411 194.296H272.698Z" fill="black"/>
<defs>
<linearGradient id="paint0_linear" x1="27.9508" y1="210.759" x2="27.9508" y2="30.6774" gradientUnits="userSpaceOnUse">
<stop stop-color="#808080" stop-opacity="0.25"/>
<stop offset="0.54" stop-color="#808080" stop-opacity="0.12"/>
<stop offset="1" stop-color="#808080" stop-opacity="0.1"/>
</linearGradient>
<linearGradient id="paint1_linear" x1="92786.1" y1="151663" x2="92786.1" y2="59342.6" gradientUnits="userSpaceOnUse">
<stop stop-color="#808080" stop-opacity="0.25"/>
<stop offset="0.54" stop-color="#808080" stop-opacity="0.12"/>
<stop offset="1" stop-color="#808080" stop-opacity="0.1"/>
</linearGradient>
</defs>
</svg>
