<svg width="217" height="211" viewBox="0 0 217 211" fill="none" xmlns="http://www.w3.org/2000/svg">
<path d="M172.778 205.919L2.41255 51.7266L29.0531 -6.10352e-05L216.369 204.653L172.778 205.919Z" fill="#C9B4FF"/>
<path d="M78.4091 123.571C78.4091 123.571 67.012 114.419 54.4286 120.9C50.0244 123.169 47.54 126.824 46.171 130.616C43.737 137.36 44.7372 144.867 48.5454 150.945L71.302 187.267C72.0804 188.531 73.1997 189.551 74.5319 190.21C75.8642 190.869 77.3556 191.142 78.8357 190.996C78.8945 190.989 78.9537 190.982 79.0134 190.975C80.0891 190.834 81.1246 190.476 82.0561 189.921C82.9876 189.367 83.7954 188.628 84.4297 187.751L106.47 157.537C110.536 152.041 112.698 145.373 112.627 138.543C112.506 131.811 110.094 124.461 101.277 121.051C101.277 121.051 91.1794 115.422 78.4091 123.571Z" fill="#B96AC9"/>
<path opacity="0.1" d="M78.4091 123.571C78.4091 123.571 67.012 114.419 54.4286 120.9C50.0244 123.169 47.54 126.824 46.171 130.616C43.737 137.36 44.7372 144.867 48.5454 150.945L71.302 187.267C72.0804 188.531 73.1997 189.551 74.5319 190.21C75.8642 190.869 77.3556 191.142 78.8357 190.996C78.8945 190.989 78.9537 190.982 79.0134 190.975C80.0891 190.834 81.1246 190.476 82.0561 189.921C82.9876 189.367 83.7954 188.628 84.4297 187.751L106.47 157.537C110.536 152.041 112.698 145.373 112.627 138.543C112.506 131.811 110.094 124.461 101.277 121.051C101.277 121.051 91.1794 115.422 78.4091 123.571Z" fill="black"/>
<path d="M78.3235 125.464C78.3235 125.464 67.6322 116.879 55.8281 122.959C51.6967 125.087 49.3661 128.515 48.0819 132.073C45.7986 138.399 46.7369 145.441 50.3093 151.142L71.6565 185.215C72.3867 186.401 73.4366 187.357 74.6864 187.976C75.9361 188.594 77.3352 188.85 78.7236 188.713C78.7788 188.707 78.8343 188.7 78.8903 188.693C79.8994 188.562 80.8708 188.225 81.7446 187.705C82.6184 187.185 83.3762 186.492 83.9712 185.669L104.646 157.326C108.461 152.17 110.489 145.916 110.422 139.509C110.309 133.194 108.046 126.299 99.7752 123.1C99.7752 123.1 90.3029 117.819 78.3235 125.464Z" fill="#B96AC9"/>
<path opacity="0.1" d="M77.3688 138.037C77.3688 138.037 72.1672 133.86 66.4242 136.818C64.6391 137.753 63.2879 139.343 62.6555 141.252C62.1221 142.78 61.9425 144.408 62.1301 146.015C62.3178 147.622 62.8679 149.165 63.7392 150.53C63.7392 150.53 76.1896 168.959 77.5635 168.809C77.5903 168.806 77.6174 168.803 77.6446 168.799C78.6363 168.676 90.1755 153.539 90.1755 153.539C92.0316 151.03 93.0181 147.987 92.9857 144.87C92.9306 141.798 91.8297 138.443 87.8057 136.886C87.8057 136.886 83.1971 134.317 77.3688 138.037Z" fill="black"/>
<path opacity="0.1" d="M36.9105 109.645L35.8576 116.469L36.9105 120.668V128.017L33.7521 141.664L36.9105 145.338L40.5953 150.062" fill="black"/>
<path d="M19.2285 20.2694H28.0423C30.8251 20.2694 33.4939 21.3717 35.4616 23.3338C37.4293 25.296 38.5347 27.9572 38.5347 30.732V49.9834H8.73608V30.732C8.73608 29.3581 9.00748 27.9975 9.53477 26.7282C10.0621 25.4588 10.8349 24.3054 11.8092 23.3338C12.7835 22.3623 13.9402 21.5916 15.2132 21.0658C16.4862 20.54 17.8506 20.2694 19.2285 20.2694Z" fill="#2F2E41"/>
<path d="M28.2772 185.368C28.2772 185.368 27.3402 191.285 25.7784 192.22C24.2167 193.154 33.8994 195.334 33.8994 195.334L35.4612 185.991L28.2772 185.368Z" fill="#FBBEBE"/>
<path d="M39.834 117.781L43.2698 121.83L41.708 135.846L40.4587 163.566C40.4587 163.566 42.9574 187.548 40.4587 188.171C37.9599 188.794 26.7154 188.482 27.0278 186.925C27.3401 185.368 27.6525 184.122 28.2772 181.942C28.9019 179.761 27.6525 171.975 27.6525 171.975L29.2142 163.254L23.592 125.568L39.834 117.781Z" fill="#2F2E41"/>
<path d="M28.5896 191.285C28.5896 191.285 25.1538 190.662 24.8415 191.285C24.5291 191.908 18.5946 198.449 17.6575 198.449C16.7205 198.449 9.84889 204.678 17.0328 204.99C24.2168 205.301 36.0859 199.695 36.0859 199.695C36.0859 199.695 34.3392 191.769 34.4317 192.15C34.5242 192.531 28.5896 192.843 28.5896 191.285Z" fill="#2F2E41"/>
<path d="M24.8413 176.958C24.8413 176.958 33.587 186.614 33.8993 187.548C34.2117 188.482 38.8969 187.548 38.8969 187.548L40.7709 181.319L39.2092 179.139L30.4635 171.975L24.8413 176.958Z" fill="#FBBEBE"/>
<path d="M37.3352 184.122L32.8062 188.373C32.8062 188.373 38.5845 197.203 38.5845 198.137C38.5845 199.072 38.8969 206.858 42.0203 205.612C45.1438 204.367 45.4561 191.908 45.4561 191.908C45.4561 191.908 45.1438 179.138 43.2697 178.204C41.3957 177.27 37.2882 177.565 37.2882 177.565C37.2882 177.565 39.8339 183.81 37.3352 184.122Z" fill="#2F2E41"/>
<path d="M11.4107 90.0615C11.4107 90.0615 9.84897 95.0448 9.53662 96.2906C9.22427 97.5365 7.3502 100.962 7.3502 106.257C7.3502 111.552 7.97489 117.781 7.3502 118.404C6.72551 119.027 -3.26956 153.91 1.10328 157.648C5.47613 161.385 19.844 173.844 20.7811 175.401C21.7181 176.958 22.0305 180.696 23.9045 180.073C25.7786 179.45 32.9626 173.221 33.2749 171.975C33.5872 170.729 29.2144 168.549 29.2144 168.549C29.2144 168.549 20.4687 155.779 18.2823 156.091C16.0959 156.402 16.4082 154.533 16.7206 153.599C17.0329 152.665 17.6576 152.042 16.7206 152.042C15.7835 152.042 16.4082 149.55 16.7206 148.304C17.0329 147.058 24.2169 130.24 24.2169 130.24L43.27 121.83C43.27 121.83 42.3329 99.0937 35.4613 92.8646L33.8996 89.1271C33.8996 89.1271 16.4082 87.8812 11.4107 90.0615Z" fill="#2F2E41"/>
<path d="M19.2191 40.8511C19.2191 40.8511 20.7808 51.7521 17.0327 52.375C13.2845 52.9979 10.1611 52.6865 10.1611 52.9979C10.1611 53.3094 19.5314 62.9646 19.5314 62.9646L28.2771 62.3417L36.0858 53.9323C36.0858 53.9323 28.9018 52.6865 28.9018 48.3261C28.9018 43.9657 28.5895 40.8511 28.5895 40.8511H19.2191Z" fill="#FBBEBE"/>
<path opacity="0.1" d="M19.2191 40.8511C19.2191 40.8511 20.7808 51.7521 17.0327 52.375C13.2845 52.9979 10.1611 52.6865 10.1611 52.9979C10.1611 53.3094 19.5314 62.9646 19.5314 62.9646L28.2771 62.3417L36.0858 53.9323C36.0858 53.9323 28.9018 52.6865 28.9018 48.3261C28.9018 43.9657 28.5895 40.8511 28.5895 40.8511H19.2191Z" fill="black"/>
<path d="M24.0605 45.3672C29.4081 45.3672 33.7432 41.0445 33.7432 35.712C33.7432 30.3796 29.4081 26.0568 24.0605 26.0568C18.7128 26.0568 14.3777 30.3796 14.3777 35.712C14.3777 41.0445 18.7128 45.3672 24.0605 45.3672Z" fill="#FBBEBE"/>
<path d="M15.4712 51.4407C15.4712 51.4407 3.28968 52.998 2.35264 57.0469C1.4156 61.0959 8.59955 86.324 9.53659 88.5042C10.4736 90.6844 10.1613 92.2417 10.1613 92.2417C11.5746 91.1877 13.1979 90.4478 14.9219 90.0718C16.646 89.6957 18.4308 89.6922 20.1563 90.0615C26.0909 91.3073 34.5242 90.6844 34.5242 90.6844C34.5242 90.6844 37.3354 79.1605 37.96 77.9146C38.5847 76.6688 41.0835 69.8167 41.0835 67.948C41.0835 66.0792 44.8316 58.2928 44.8316 58.2928C44.8316 58.2928 42.9576 52.6865 36.086 52.998C36.086 52.998 33.0886 51.6602 32.2447 52.6406C31.4008 53.6209 26.7156 57.9813 20.781 56.1125C14.8465 54.2438 15.4712 51.4407 15.4712 51.4407Z" fill="#FF6584"/>
<path d="M5.78828 56.7354H2.35247L0.478394 81.3406C0.478394 81.3406 7.35001 83.2094 8.28704 81.9635C9.22408 80.7177 5.78828 56.7354 5.78828 56.7354Z" fill="#FF6584"/>
<path d="M38.8969 56.7354L44.8314 58.2927C44.8314 58.2927 49.2042 74.1771 49.5166 74.4885C49.8289 74.8 50.1413 76.6688 50.1413 76.6688C50.1413 76.6688 50.1413 76.9802 50.766 77.9146C51.3907 78.849 52.3277 78.226 51.703 79.4719C51.0783 80.7177 50.1413 80.0948 50.766 81.3406C51.3907 82.5865 51.0783 86.0125 51.0783 86.0125C51.0783 86.0125 49.5166 80.0948 43.8944 81.6521L40.1462 64.8333L38.8969 56.7354Z" fill="#FF6584"/>
<path d="M31.6203 33.3638H16.5753L13.1691 25.5574H34.175L31.6203 33.3638Z" fill="#2F2E41"/>
<path d="M14.6015 39.0758C15.0033 38.9596 15.0774 37.9992 14.7669 36.9306C14.4563 35.862 13.8788 35.0898 13.4769 35.2059C13.075 35.3221 13.001 36.2825 13.3115 37.3511C13.6221 38.4197 14.1996 39.1919 14.6015 39.0758Z" fill="#FFB9B9"/>
<path d="M34.9562 37.3511C35.2667 36.2825 35.1927 35.3221 34.7908 35.206C34.3889 35.0899 33.8114 35.862 33.5009 36.9306C33.1903 37.9993 33.2644 38.9597 33.6663 39.0758C34.0681 39.1919 34.6457 38.4198 34.9562 37.3511Z" fill="#FFB9B9"/>
<path d="M32.3977 78.5122C35.5028 78.5122 38.02 76.0022 38.02 72.9059C38.02 69.8097 35.5028 67.2997 32.3977 67.2997C29.2927 67.2997 26.7755 69.8097 26.7755 72.9059C26.7755 76.0022 29.2927 78.5122 32.3977 78.5122Z" fill="#3F3D56"/>
<path opacity="0.1" d="M32.3977 78.5122C35.5028 78.5122 38.02 76.0022 38.02 72.9059C38.02 69.8097 35.5028 67.2997 32.3977 67.2997C29.2927 67.2997 26.7755 69.8097 26.7755 72.9059C26.7755 76.0022 29.2927 78.5122 32.3977 78.5122Z" fill="black"/>
<path d="M32.3977 77.9561C35.1948 77.9561 37.4624 75.695 37.4624 72.9059C37.4624 70.1167 35.1948 67.8556 32.3977 67.8556C29.6006 67.8556 27.3331 70.1167 27.3331 72.9059C27.3331 75.695 29.6006 77.9561 32.3977 77.9561Z" fill="#3F3D56"/>
<path opacity="0.1" d="M32.1743 70.051C32.1743 70.051 30.8839 69.2322 29.6521 70.051C29.2697 70.3091 29.0027 70.7052 28.9074 71.1558C28.8249 71.5171 28.8256 71.8922 28.9092 72.2532C28.9929 72.6142 29.1575 72.9516 29.3906 73.2401L32.1771 76.7499C32.2727 76.8722 32.4008 76.9652 32.5469 77.0183C32.693 77.0714 32.8511 77.0824 33.0031 77.0501L33.0213 77.0459C33.1314 77.0188 33.2348 76.9696 33.3252 76.9012C33.4155 76.8329 33.4908 76.7468 33.5465 76.6483L35.4844 73.2547C35.8429 72.6367 35.9899 71.9191 35.9031 71.2104C35.8831 70.8191 35.7382 70.4444 35.4894 70.1411C35.2407 69.8378 34.9012 69.6218 34.5205 69.5246C34.5205 69.5246 33.406 69.0567 32.1743 70.051Z" fill="black"/>
<path d="M32.1875 70.2486C32.1875 70.2486 30.977 69.4805 29.8216 70.2486C29.4628 70.4907 29.2123 70.8623 29.1229 71.285C29.0456 71.6238 29.0462 71.9758 29.1247 72.3144C29.2032 72.653 29.3576 72.9695 29.5762 73.2402L32.1902 76.5327C32.2798 76.6474 32.4 76.7346 32.5371 76.7844C32.6741 76.8342 32.8224 76.8445 32.965 76.8142L32.9821 76.8103C33.0854 76.7849 33.1824 76.7387 33.2671 76.6746C33.3518 76.6105 33.4225 76.5297 33.4747 76.4373L35.2926 73.2539C35.629 72.6742 35.7668 72.001 35.6854 71.3362C35.6667 70.9691 35.5307 70.6176 35.2973 70.3331C35.064 70.0486 34.7455 69.8459 34.3884 69.7548C34.3884 69.7548 33.343 69.3159 32.1875 70.2486Z" fill="#F0EFFF"/>
<path opacity="0.1" d="M32.2345 71.5657C32.061 71.4608 31.8619 71.4054 31.659 71.4054C31.4561 71.4054 31.257 71.4608 31.0834 71.5657C30.9089 71.6835 30.787 71.8643 30.7435 72.0699C30.7059 72.2348 30.7062 72.406 30.7444 72.5708C30.7826 72.7355 30.8577 72.8895 30.964 73.0212C30.964 73.0212 32.4718 74.7915 32.6128 74.76L32.6211 74.7581C32.7227 74.7338 33.7452 73.0278 33.7452 73.0278C33.9089 72.7458 33.9759 72.4183 33.9363 72.0948C33.9272 71.9162 33.8611 71.7452 33.7475 71.6068C33.634 71.4684 33.479 71.3698 33.3053 71.3254C33.1214 71.2679 32.9255 71.2598 32.7375 71.302C32.5495 71.3442 32.376 71.4352 32.2345 71.5657Z" fill="black"/>
<path d="M27.4002 81.6268C30.5053 81.6268 33.0225 79.1168 33.0225 76.0205C33.0225 72.9243 30.5053 70.4142 27.4002 70.4142C24.2952 70.4142 21.778 72.9243 21.778 76.0205C21.778 79.1168 24.2952 81.6268 27.4002 81.6268Z" fill="#3F3D56"/>
<path opacity="0.1" d="M27.4002 81.6268C30.5053 81.6268 33.0225 79.1168 33.0225 76.0205C33.0225 72.9243 30.5053 70.4142 27.4002 70.4142C24.2952 70.4142 21.778 72.9243 21.778 76.0205C21.778 79.1168 24.2952 81.6268 27.4002 81.6268Z" fill="black"/>
<path d="M27.4002 81.0707C30.1973 81.0707 32.4649 78.8096 32.4649 76.0204C32.4649 73.2312 30.1973 70.9702 27.4002 70.9702C24.6031 70.9702 22.3356 73.2312 22.3356 76.0204C22.3356 78.8096 24.6031 81.0707 27.4002 81.0707Z" fill="#3F3D56"/>
<path opacity="0.1" d="M27.1767 73.1656C27.1767 73.1656 25.8863 72.3467 24.6546 73.1656C24.2721 73.4237 24.0051 73.8198 23.9098 74.2704C23.8274 74.6316 23.828 75.0068 23.9117 75.3678C23.9954 75.7287 24.1599 76.0661 24.393 76.3546L27.1796 79.8645C27.2751 79.9868 27.4033 80.0798 27.5493 80.1329C27.6954 80.1859 27.8535 80.197 28.0055 80.1646L28.0238 80.1604C28.1339 80.1334 28.2373 80.0842 28.3276 80.0158C28.4179 79.9474 28.4932 79.8613 28.5489 79.7628L30.4869 76.3693C30.8454 75.7513 30.9923 75.0337 30.9055 74.325C30.8856 73.9337 30.7406 73.559 30.4919 73.2557C30.2431 72.9524 29.9036 72.7363 29.5229 72.6392C29.5229 72.6392 28.4085 72.1713 27.1767 73.1656Z" fill="black"/>
<path d="M27.19 73.3631C27.19 73.3631 25.9795 72.595 24.8241 73.3631C24.4653 73.6053 24.2148 73.9768 24.1255 74.3995C24.0481 74.7384 24.0487 75.0903 24.1272 75.429C24.2057 75.7676 24.3601 76.0841 24.5787 76.3547L27.1927 79.6472C27.2823 79.7619 27.4025 79.8491 27.5396 79.8989C27.6766 79.9487 27.8249 79.9591 27.9675 79.9288L27.9846 79.9248C28.0879 79.8995 28.1849 79.8533 28.2696 79.7891C28.3543 79.725 28.425 79.6442 28.4772 79.5518L30.2952 76.3685C30.6315 75.7887 30.7693 75.1156 30.6879 74.4508C30.6692 74.0837 30.5332 73.7322 30.2999 73.4477C30.0665 73.1631 29.748 72.9605 29.3909 72.8694C29.3909 72.8694 28.3455 72.4304 27.19 73.3631Z" fill="#F0EFFF"/>
<path opacity="0.1" d="M27.237 74.6803C27.0635 74.5755 26.8644 74.52 26.6615 74.52C26.4586 74.52 26.2595 74.5755 26.0859 74.6803C25.9114 74.7981 25.7895 74.9789 25.746 75.1845C25.7084 75.3494 25.7087 75.5206 25.7469 75.6854C25.7851 75.8501 25.8602 76.0041 25.9665 76.1358C25.9665 76.1358 27.4743 77.9061 27.6153 77.8746L27.6236 77.8727C27.7252 77.8484 28.7477 76.1425 28.7477 76.1425C28.9114 75.8604 28.9784 75.5329 28.9388 75.2095C28.9297 75.0309 28.8636 74.8599 28.75 74.7214C28.6365 74.583 28.4815 74.4844 28.3078 74.4401C28.1239 74.3825 27.9281 74.3744 27.74 74.4166C27.552 74.4588 27.3785 74.5498 27.237 74.6803Z" fill="black"/>
<path opacity="0.1" d="M20.3865 62.2923L20.4869 62.7934L20.3865 63.1443" fill="black"/>
<path opacity="0.1" d="M11.2435 62.8934L11.5449 63.0439L11.7458 63.6955L12.1478 63.5952L12.3486 63.9461" fill="black"/>
<path opacity="0.1" d="M16.7696 69.4059L17.5733 69.3059L17.925 68.955H18.4275" fill="black"/>
<path opacity="0.1" d="M11.8967 68.3539L12.1981 68.7048L12.7004 68.855L13.0521 68.9553L13.1527 69.5066" fill="black"/>
<path opacity="0.1" d="M17.8248 66.6511L18.1765 66.4006L18.327 65.9995L18.6284 65.9493L18.7793 65.4482" fill="black"/>
<path d="M1.41541 78.849L0.478374 81.3406C0.478374 81.3406 -0.146317 89.4386 3.60183 89.1271C7.34998 88.8156 9.53639 84.1438 9.53639 84.1438C9.53639 84.1438 7.34998 78.2261 4.85121 78.849C2.35245 79.4719 1.41541 78.849 1.41541 78.849Z" fill="#FF6584"/>
<path d="M21.3302 64.9243V70.7789L19.7828 73.9013L19.7334 74L15.6364 73.7291L14.0614 73.6246L10.4064 73.3835V66.3811L14.0614 66.4832L15.6961 66.5291L19.8322 66.6462L21.3302 64.9243Z" fill="#3F3D56"/>
<path opacity="0.1" d="M21.3303 65.2687V70.7789L20.9526 71.5411L20.5646 72.3229V72.324L19.7828 73.9013L19.8701 68.0468L19.8884 66.8655L20.6311 66.0425L20.956 65.6843L21.3303 65.2687Z" fill="black"/>
<path d="M21.5404 63.3689V65.4145L21.3303 65.7486L20.9549 66.3467L20.6232 66.877L19.8885 68.0468H19.8701L10.0839 67.5428V65.5259L10.108 65.4995L11.2766 64.2344L11.7002 63.7776L12.4647 62.9487L21.5404 63.3689Z" fill="#3F3D56"/>
<path opacity="0.1" d="M19.8885 66.0298V68.0467L10.0839 67.5428V65.5259L10.108 65.4995L19.8885 66.0298Z" fill="black"/>
<path opacity="0.15" d="M21.5403 63.3688V65.4145L19.8884 68.0467V66.0298L21.5403 63.3688Z" fill="black"/>
<path d="M20.9561 64.3102V65.6843L20.9549 66.3466L20.9526 71.5411L20.5646 72.3228L20.6232 66.877L20.6312 66.0424L20.645 64.8118L11.2766 64.2344L11.7002 63.7775L20.9561 64.3102Z" fill="#F0EFFF"/>
<path d="M16.3585 64.3779L15.7019 65.8037L15.6961 66.5292L15.6365 73.7291L14.0615 73.6246V65.7084L14.9018 64.3779H16.3585Z" fill="#F0EFFF"/>
<path d="M14.1969 64.4743C13.8175 64.6003 13.4099 64.6147 13.0226 64.5157C12.9474 64.5005 12.8769 64.4674 12.8171 64.4192C12.7532 64.3482 12.7092 64.2614 12.6897 64.1678C12.6203 63.9733 12.5816 63.7693 12.5749 63.5629C12.5727 63.4599 12.5942 63.3577 12.6378 63.2644C12.6814 63.171 12.7459 63.0889 12.8263 63.0245C12.8605 63.0038 12.8924 62.9795 12.9216 62.9522C12.9564 62.9082 12.9814 62.8573 12.995 62.8029C13.1098 62.4585 13.3325 62.0992 13.6895 62.0441C14.019 61.9936 14.3186 62.2232 14.5723 62.439L15.1291 62.9131C15.1909 62.747 15.3015 62.6034 15.4465 62.5014C15.5914 62.3993 15.7638 62.3435 15.941 62.3413C16.1183 62.339 16.2921 62.3905 16.4395 62.4889C16.587 62.5872 16.7012 62.7279 16.7672 62.8925C17.1049 62.5128 17.53 62.2212 18.0058 62.043C18.0557 62.017 18.1107 62.0025 18.1668 62.0003C18.223 61.9981 18.279 62.0084 18.3307 62.0304C18.3905 62.0737 18.4357 62.1341 18.4604 62.2037C18.6123 62.5355 18.6943 62.895 18.7015 63.2598C18.7403 63.2462 18.7826 63.2461 18.8215 63.2594C18.8604 63.2728 18.8938 63.2988 18.9161 63.3333C18.9587 63.4027 18.9836 63.4816 18.9885 63.5629C19.0032 63.6901 19.0105 63.8182 19.0103 63.9463C19.0232 64.082 18.9874 64.2179 18.9093 64.3297C18.7945 64.4629 18.5993 64.4766 18.4248 64.4801C18.4421 64.5016 18.4547 64.5266 18.4616 64.5533C18.4685 64.5801 18.4697 64.608 18.4651 64.6353C18.4604 64.6625 18.45 64.6884 18.4345 64.7114C18.4191 64.7343 18.399 64.7537 18.3755 64.7682C18.2756 64.8216 18.162 64.8436 18.0494 64.8313C17.6167 64.8313 17.1552 64.8153 16.7947 64.5742C16.6524 64.4801 16.533 64.3538 16.3907 64.2585C16.0463 64.0289 15.602 64.0163 15.1979 64.0358C14.834 64.0542 14.5448 64.3572 14.1969 64.4743Z" fill="#F0EFFF"/>
<path d="M14.1177 64.3779C14.1177 64.3779 10.5039 64.8819 10 67.0676L10.7565 66.9528L11.288 67.9056C11.288 67.9056 11.8482 65.7761 13.5012 65.2722C15.1543 64.7682 15.742 64.6844 15.742 64.6844C15.742 64.6844 16.89 64.9645 17.9231 68.297L18.512 67.4854L19.5452 67.715C19.5452 67.715 18.7887 65.1103 16.7442 64.386L14.1177 64.3779Z" fill="#F0EFFF"/>
<path d="M4.539 80.4063C4.539 80.4063 2.66492 86.0125 4.85134 86.0125C7.03776 86.0125 11.0983 82.5865 11.4106 79.7833C11.7229 76.9802 17.3452 66.3906 13.2847 67.325C9.22418 68.2594 7.35011 76.0459 7.35011 76.0459L4.539 80.4063Z" fill="#FBBEBE"/>
<path d="M49.2043 80.7178L51.1556 83.9695C51.1556 83.9695 52.0154 90.0615 47.6426 90.0615C43.2698 90.0615 37.0228 84.1438 37.0228 84.1438C37.0228 84.1438 33.8994 82.898 32.0253 83.2094C30.1512 83.5209 19.8438 83.2094 24.2167 77.9146C28.5895 72.6199 36.0858 77.9146 36.0858 77.9146L43.8944 81.6521L47.9549 79.4719L49.2043 80.7178Z" fill="#FBBEBE"/>
<path d="M46.5494 76.5131L43.4259 81.4964C43.4259 81.4964 50.6099 82.4308 51.2345 83.9881C51.8592 85.5453 48.4234 75.8901 48.4234 75.8901L46.5494 76.5131Z" fill="#FF6584"/>
<path d="M96.7222 92.3027C99.2897 93.2745 105.268 93.3835 107.923 93.3804C108.729 93.3804 109.229 93.3804 109.229 93.3804L110.931 89.9263L109.229 87.0453C109.229 87.0453 107.667 86.6186 105.593 86.2449C102.532 85.6936 98.3433 85.2638 96.3474 86.5002C92.999 88.5621 93.3739 91.0351 96.7222 92.3027Z" fill="#FEC2BE"/>
<path opacity="0.1" d="M107.923 93.3803C108.729 93.3803 109.228 93.3803 109.228 93.3803L110.931 89.9263L109.228 87.0453C109.228 87.0453 107.667 86.6186 105.593 86.2448C107.276 87.472 111.324 90.1474 107.923 93.3803Z" fill="black"/>
<path d="M136.115 50.9503L135.362 50.0876C135.362 50.0876 131.492 56.1922 131.09 58.497C130.687 60.8018 130.152 63.4523 130.152 63.4523C130.152 63.4523 129.187 66.4423 128.563 67.7691C127.938 69.0959 127.351 70.3604 127.295 70.9366C127.238 71.5128 127.526 72.7804 126.311 73.584C125.096 74.3876 124.808 76.5802 124.808 76.5802C124.808 76.5802 120.435 80.841 118.108 80.9562C115.781 81.0715 109.157 82.2239 109.388 83.3763C109.619 84.5286 106.614 85.2201 105.402 85.5066C104.19 85.7932 113.211 89.2441 107.945 93.6855C107.945 93.6855 111.293 94.377 111.64 95.1836C111.986 95.9903 115.51 94.7227 115.51 94.7227C115.51 94.7227 116.262 92.938 118.861 92.8228C121.46 92.7075 122.787 91.5551 122.787 91.3807C122.787 91.2063 125.386 89.7705 126.832 89.3656C128.278 88.9607 130.181 88.7894 130.24 88.3876C130.299 87.9858 138.901 50.9503 138.901 50.9503H136.115Z" fill="#4C4981"/>
<path opacity="0.05" d="M136.115 50.9503L135.362 50.0876C135.362 50.0876 131.492 56.1922 131.09 58.497C130.687 60.8018 130.152 63.4523 130.152 63.4523C130.152 63.4523 129.187 66.4423 128.563 67.7691C127.938 69.0959 127.351 70.3604 127.295 70.9366C127.238 71.5128 127.526 72.7804 126.311 73.584C125.096 74.3876 124.808 76.5802 124.808 76.5802C124.808 76.5802 120.435 80.841 118.108 80.9562C115.781 81.0715 109.157 82.2239 109.388 83.3763C109.619 84.5286 106.614 85.2201 105.402 85.5066C104.19 85.7932 113.211 89.2441 107.945 93.6855C107.945 93.6855 111.293 94.377 111.64 95.1836C111.986 95.9903 115.51 94.7227 115.51 94.7227C115.51 94.7227 116.262 92.938 118.861 92.8228C121.46 92.7075 122.787 91.5551 122.787 91.3807C122.787 91.2063 125.386 89.7705 126.832 89.3656C128.278 88.9607 130.181 88.7894 130.24 88.3876C130.299 87.9858 138.901 50.9503 138.901 50.9503H136.115Z" fill="black"/>
<path d="M145.117 210.775C152.741 212.202 154.128 206.371 154.128 206.371C154.128 206.371 155.065 201.189 155.428 200.799C155.47 200.725 155.498 200.643 155.508 200.558C155.518 200.473 155.511 200.386 155.487 200.304C155.287 199.425 154.914 198.595 154.387 197.862C153.91 197.298 154.3 194.966 154.3 194.966L145.464 192.72C145.464 192.72 144.683 194.492 144.599 195.311C144.514 196.13 143.212 199.849 143.349 200.366C143.487 200.883 142.787 202.484 142.699 203.303C142.612 204.122 141.531 205.334 141.45 205.767C141.313 206.155 141.154 206.534 140.972 206.904C140.736 207.473 140.548 208.06 140.41 208.66C139.957 210.473 145.117 210.775 145.117 210.775Z" fill="#CA8496"/>
<path opacity="0.1" d="M145.117 210.775C152.741 212.202 154.128 206.371 154.128 206.371C154.128 206.371 155.065 201.189 155.428 200.799C155.47 200.725 155.498 200.643 155.508 200.558C155.518 200.473 155.511 200.386 155.487 200.304L153.65 205.549C153.65 205.549 152.135 208.704 146.504 208.227C143.299 207.96 141.722 207.365 140.957 206.904C140.721 207.473 140.533 208.06 140.394 208.66C139.957 210.473 145.117 210.775 145.117 210.775Z" fill="black"/>
<path opacity="0.1" d="M151.052 202.569C151.052 202.569 149.146 202.613 149.015 201.058L151.052 202.569Z" fill="black"/>
<path d="M117.905 151.511C118.842 152.937 119.942 159.157 119.942 159.157C119.942 159.157 120.679 160.584 120.635 161.792C120.592 163.001 121.329 165.218 121.329 165.218L123.756 174.16C123.756 174.16 123.493 176.533 124.405 178.209C125.317 179.885 125.227 179.377 124.793 182.314C124.359 185.251 125.314 187.973 126.873 188.836C128.432 189.699 126.179 191.73 126.179 191.73C126.179 191.73 136.143 194.408 138.224 192.767C140.304 191.125 137.14 183.006 137.14 183.006C137.14 183.006 137.658 176.178 137.315 175.185C136.971 174.191 135.494 165.717 135.494 165.717C135.494 165.717 134.585 161.873 134.931 161.225C135.278 160.577 134.713 158.718 134.713 158.718C134.713 158.718 133.242 156.647 133.37 155.999C133.498 155.351 132.936 154.193 132.936 154.193C132.936 154.193 137.352 147.453 136.965 146.201C136.577 144.948 137.137 142.918 137.137 142.918C137.137 142.918 137.696 141.962 138.367 140.822C139.189 139.42 140.182 137.741 140.516 137.218C140.941 136.548 141.965 133.714 142.537 132.082L142.943 130.911C142.943 130.911 143.633 143.609 144.242 144.905C144.852 146.201 145.757 156.429 145.757 156.429C146.093 157.341 146.24 158.311 146.191 159.282C146.104 160.88 147.578 167.834 147.578 167.834C147.578 167.834 148.228 172.759 147.794 174.064C147.36 175.369 147.706 184.905 147.706 184.905C147.706 184.905 145.323 186.774 144.717 188.188C144.111 189.602 144.805 193.502 144.805 193.502C144.805 193.502 151.736 196.956 154.8 196.049C157.864 195.143 156.618 189.917 156.618 189.917C156.618 189.917 158.698 186.46 158.698 185.12C158.698 183.781 159.435 179.679 159.435 179.679C162.077 174.839 161.037 163.091 161.468 162.141C161.899 161.191 160.575 157.647 159.485 156.061C158.395 154.476 158.835 150.144 159.485 148.898C160.135 147.652 158.841 143.292 158.841 143.292C158.841 143.292 160.091 134.91 160.057 133.615C160.022 132.319 161.14 128.475 161.14 128.475C161.14 128.475 162.265 126.488 162.006 125.884C161.746 125.28 162.871 123.723 162.568 123.031C162.265 122.34 162.827 120.228 163.392 118.982C163.68 118.337 164.039 116.572 164.329 115.002C164.595 113.51 164.792 112.199 164.792 112.199L157.642 106.455L139.795 101.783L133.079 99.6219L126.539 109.9C126.539 109.9 125.864 110.975 125.264 112.214C124.752 113.283 124.293 114.475 124.374 115.214C124.483 116.149 124.269 117.094 123.768 117.892C123.768 117.892 119.855 130.21 119.942 133.758C120.029 137.305 118.568 145.076 118.568 145.076C118.568 145.076 116.953 150.084 117.905 151.511Z" fill="#4C4981"/>
<path d="M136.562 66.2648V93.2215L129.415 107.598L129.187 108.053L110.269 106.807L102.997 106.328L86.118 105.216V72.9705L102.997 73.4471L110.547 73.6589L129.64 74.1977L136.562 66.2648Z" fill="#F0EFFF"/>
<path opacity="0.1" d="M136.562 67.8563V93.2214L134.816 96.7316V96.7347L133.023 100.332V100.335L129.415 107.598L129.818 80.6416L129.9 75.2036L133.332 71.4162L134.828 69.7655L136.562 67.8563Z" fill="black"/>
<path d="M137.53 59.1074V68.5228L136.562 70.0645L134.828 72.8178L133.292 75.2565L129.9 80.6448L129.818 80.6417L84.6313 78.3244V69.0367L84.7438 68.9153L90.138 63.091L92.0933 60.9855L95.6228 57.1733L137.53 59.1074Z" fill="#F0EFFF"/>
<path opacity="0.1" d="M129.9 71.3603V80.6448L84.6313 78.3245V69.0368L84.7438 68.9153L129.9 71.3603Z" fill="black"/>
<path opacity="0.15" d="M137.53 59.1075V68.5229L129.9 80.6449V71.3603L137.53 59.1075Z" fill="black"/>
<path d="M134.835 63.4398L134.828 69.7655V72.8178L134.816 96.7316V96.7347L133.023 100.332L133.292 75.2566L133.332 71.4163L133.395 65.7508L90.1379 63.091L92.0932 60.9855L134.835 63.4398Z" fill="#3F3D56"/>
<path d="M113.604 63.7513L110.572 70.3138L110.547 73.6588L110.269 106.807L102.997 106.328V69.8746L106.877 63.7513H113.604Z" fill="#3F3D56"/>
<path d="M103.622 64.1811C101.871 64.7616 99.9899 64.8276 98.2026 64.3711C97.8598 64.3008 97.5386 64.1503 97.2656 63.932C96.9691 63.6041 96.7664 63.2029 96.6784 62.7702C96.3629 61.8753 96.188 60.9371 96.1599 59.9889C96.1818 59.0545 96.5441 58.0516 97.3187 57.4972C97.4771 57.4034 97.6248 57.2927 97.7591 57.1671C97.9219 56.9654 98.0382 56.7303 98.0996 56.4788C98.6306 54.9028 99.6613 53.2365 101.304 52.9842C102.825 52.7537 104.209 53.8127 105.38 54.8062L107.951 56.9864C108.238 56.2231 108.749 55.5638 109.417 55.0948C110.086 54.6258 110.881 54.3689 111.698 54.3578C112.516 54.3467 113.317 54.5819 113.998 55.0325C114.68 55.4832 115.209 56.1284 115.516 56.8837C117.073 55.133 119.037 53.7898 121.235 52.9717C121.722 52.7911 122.294 52.6416 122.737 52.9126C123.011 53.1146 123.219 53.3932 123.334 53.713C124.034 55.2397 124.414 56.8932 124.449 58.5718C124.629 58.5108 124.824 58.5114 125.003 58.5735C125.182 58.6355 125.336 58.7555 125.439 58.9144C125.639 59.2376 125.753 59.6064 125.77 59.9858C125.839 60.5719 125.873 61.1616 125.873 61.7517C125.873 62.3747 125.814 63.0443 125.408 63.5177C124.883 64.1251 123.977 64.1905 123.172 64.2091C123.559 64.5518 123.368 65.2432 122.94 65.536C122.479 65.7813 121.955 65.8822 121.435 65.8256C119.436 65.8069 117.309 65.7509 115.644 64.6421C114.988 64.206 114.438 63.6236 113.77 63.1876C112.155 62.1224 110.128 62.0725 108.26 62.1598C106.567 62.2594 105.227 63.6579 103.622 64.1811Z" fill="#3F3D56"/>
<path d="M103.263 63.7513C103.263 63.7513 86.5772 66.0717 84.2471 76.1318L87.7423 75.6179L90.1973 80.0032C90.1973 80.0032 92.7867 70.1985 100.417 67.8782C108.048 65.5578 110.762 65.1685 110.762 65.1685C110.762 65.1685 116.072 66.461 120.851 81.8066L123.568 78.0691L128.353 79.1031C128.353 79.1031 124.861 67.1089 115.419 63.7545L103.263 63.7513Z" fill="#3F3D56"/>
<path d="M144.296 51.3802C144.57 51.2681 163.414 43.5096 160.819 41.9648C159.279 41.0491 157.383 37.1715 156.083 34.1347C155.178 32.0106 154.562 30.3038 154.562 30.3038C154.562 30.3038 139.439 27.6253 144.852 36.8693C145.705 38.2871 146.348 39.8209 146.76 41.4229C148.303 47.7174 144.421 51.2649 144.296 51.3802Z" fill="#FEC2BE"/>
<path opacity="0.1" d="M144.852 36.8693C145.705 38.2871 146.348 39.8209 146.76 41.4229C148.679 41.2884 150.525 40.6344 152.098 39.5312C153.672 38.428 154.914 36.9175 155.69 35.1626C155.84 34.8274 155.971 34.4843 156.083 34.1347C155.178 32.0106 154.562 30.3038 154.562 30.3038C154.562 30.3038 139.439 27.6253 144.852 36.8693Z" fill="black"/>
<path d="M135.45 30.5623C135.45 32.98 136.284 35.3242 137.811 37.2018C139.339 39.0795 141.467 40.3763 143.839 40.875C146.212 41.3737 148.684 41.0439 150.842 39.9409C152.999 38.8379 154.711 37.0288 155.69 34.8168C156.286 33.4773 156.593 32.0277 156.589 30.5623C156.589 29.1782 156.316 27.8076 155.785 26.5289C155.254 25.2501 154.475 24.0882 153.494 23.1095C152.512 22.1308 151.347 21.3545 150.065 20.8248C148.782 20.2951 147.408 20.0225 146.02 20.0225C144.632 20.0225 143.257 20.2951 141.975 20.8248C140.692 21.3545 139.527 22.1308 138.546 23.1095C137.564 24.0882 136.786 25.2501 136.254 26.5289C135.723 27.8076 135.45 29.1782 135.45 30.5623Z" fill="#FEC2BE"/>
<path opacity="0.1" d="M125.252 112.227C126.361 113.23 126.785 115.139 126.785 115.139C126.785 115.139 131.998 118.686 131.639 116.434C131.28 114.183 134.325 105.119 134.325 105.119L133.979 117.472C133.979 117.472 150.611 116.696 151.826 115.485C153.041 114.273 160.144 111.943 160.144 111.943C160.144 111.943 162.33 113.684 164.317 115.005C164.582 113.513 164.779 112.202 164.779 112.202L157.63 106.458L139.782 101.787L133.067 99.6251L126.526 109.903C126.526 109.903 125.852 110.987 125.252 112.227Z" fill="black"/>
<path d="M124.708 111.252C126.092 112.118 126.614 114.451 126.614 114.451C126.614 114.451 131.811 117.992 131.464 115.746C131.118 113.501 134.151 104.428 134.151 104.428L133.804 116.78C133.804 116.78 150.439 116.005 151.651 114.793C152.863 113.582 159.969 111.252 159.969 111.252C159.969 111.252 166.119 116.176 167.247 115.746C168.374 115.316 165.254 106.932 165.254 106.932L162.049 57.8617C162.049 57.8617 162.914 43.2605 161.615 42.7435C161.415 42.6626 161.23 42.5477 161.069 42.404C160.213 41.6347 159.957 40.0774 159.882 38.7693C159.797 37.212 157.717 37.9906 157.717 37.9906L158.929 39.5479L148.194 46.0543L148.1 46.1135C147.682 45.8936 147.251 45.6981 146.81 45.5279C145.873 45.1635 144.595 44.8209 143.768 45.1635C143.305 45.3968 142.913 45.7483 142.631 46.182C142.018 47.1005 141.527 48.0939 141.169 49.1377L137.271 55.7033C137.271 55.7033 135.278 64.4241 135.278 64.7729C135.278 65.1217 134.672 73.067 133.979 73.9298C133.285 74.7925 132.592 79.1156 132.851 80.4112C133.11 81.7069 132.417 86.5438 132.417 86.5438C129.559 88.8767 128.085 96.822 128.085 96.822C128.085 96.822 123.581 105.72 123.234 106.757C122.887 107.795 123.322 110.389 124.708 111.252Z" fill="white"/>
<path opacity="0.1" d="M148.194 46.4C149.246 47.9573 152.289 50.1375 152.289 50.1375L161.069 42.7435C160.213 41.9742 159.957 40.4169 159.882 39.1087C159.797 37.5515 157.717 38.3301 157.717 38.3301L157.967 38.6416C158.088 38.7963 158.174 38.9748 158.221 39.1653C158.268 39.3558 158.274 39.5539 158.238 39.7468C158.203 39.9397 158.127 40.123 158.016 40.2846C157.904 40.4462 157.76 40.5826 157.592 40.6847L148.194 46.4Z" fill="black"/>
<path d="M148.194 46.0542C149.246 47.6115 152.289 49.7917 152.289 49.7917L161.069 42.3977C160.213 41.6284 159.957 40.0711 159.882 38.763C159.797 37.2057 157.717 37.9843 157.717 37.9843L157.967 38.2958C158.088 38.4506 158.174 38.6291 158.221 38.8195C158.268 39.01 158.274 39.2082 158.238 39.4011C158.203 39.5939 158.127 39.7772 158.016 39.9388C157.904 40.1005 157.76 40.2368 157.592 40.339L148.194 46.0542Z" fill="white"/>
<path opacity="0.1" d="M144.133 47.2191C145.267 48.574 146.876 50.1063 146.801 49.337C146.726 48.5677 147.76 46.8734 148.419 46.1134C147.39 45.7871 146.28 45.8168 145.27 46.1975C144.808 46.4331 144.416 46.7853 144.133 47.2191Z" fill="black"/>
<path d="M143.958 46.702C145.095 48.0537 146.701 49.5892 146.626 48.8199C146.551 48.0506 147.478 46.8079 148.137 46.048C147.2 45.6836 145.926 45.341 145.095 45.6804C144.632 45.914 144.239 46.2667 143.958 46.702Z" fill="white"/>
<path d="M146.801 53.8882C147.183 53.8882 147.494 53.5784 147.494 53.1963C147.494 52.8143 147.183 52.5045 146.801 52.5045C146.418 52.5045 146.107 52.8143 146.107 53.1963C146.107 53.5784 146.418 53.8882 146.801 53.8882Z" fill="#FF718D"/>
<path d="M141.544 72.5476C141.927 72.5476 142.237 72.2379 142.237 71.8558C142.237 71.4737 141.927 71.164 141.544 71.164C141.161 71.164 140.85 71.4737 140.85 71.8558C140.85 72.2379 141.161 72.5476 141.544 72.5476Z" fill="#FF718D"/>
<path d="M135.594 91.4407C135.977 91.4407 136.287 91.131 136.287 90.7489C136.287 90.3668 135.977 90.0571 135.594 90.0571C135.211 90.0571 134.9 90.3668 134.9 90.7489C134.9 91.131 135.211 91.4407 135.594 91.4407Z" fill="#FF718D"/>
<path d="M135.422 112C135.805 112 136.115 111.69 136.115 111.308C136.115 110.926 135.805 110.616 135.422 110.616C135.039 110.616 134.729 110.926 134.729 111.308C134.729 111.69 135.039 112 135.422 112Z" fill="#FF718D"/>
<path d="M143.74 62.6993C144.123 62.6993 144.433 62.3895 144.433 62.0074C144.433 61.6254 144.123 61.3156 143.74 61.3156C143.357 61.3156 143.046 61.6254 143.046 62.0074C143.046 62.3895 143.357 62.6993 143.74 62.6993Z" fill="#FF718D"/>
<path d="M139.061 81.879C139.444 81.879 139.754 81.5692 139.754 81.1871C139.754 80.8051 139.444 80.4953 139.061 80.4953C138.678 80.4953 138.367 80.8051 138.367 81.1871C138.367 81.5692 138.678 81.879 139.061 81.879Z" fill="#FF718D"/>
<path d="M134.497 100.713C134.88 100.713 135.191 100.403 135.191 100.021C135.191 99.639 134.88 99.3292 134.497 99.3292C134.114 99.3292 133.804 99.639 133.804 100.021C133.804 100.403 134.114 100.713 134.497 100.713Z" fill="#FF718D"/>
<path d="M135.537 114.305C135.92 114.305 136.231 113.995 136.231 113.613C136.231 113.231 135.92 112.921 135.537 112.921C135.154 112.921 134.844 113.231 134.844 113.613C134.844 113.995 135.154 114.305 135.537 114.305Z" fill="#FF718D"/>
<path opacity="0.1" d="M161.065 42.8307C161.065 42.8307 160.95 41.7935 162.452 43.5782C163.954 45.3628 166.784 46.9201 166.784 46.9201C166.784 46.9201 173.197 51.4114 173.54 53.4857C173.884 55.56 175.964 64.5424 174.868 67.5387C173.772 70.5349 165.394 84.8744 165.394 84.8744C165.394 84.8744 167.581 87.4658 167.072 90.5181C166.563 93.5703 165.916 97.775 166.203 98.6969C166.491 99.6189 165.857 101.921 166.828 102.727C167.799 103.534 168.849 104.907 165.788 106.761C165.788 106.761 165.21 108.318 165.729 108.66C166.247 109.003 158.048 112.579 154.812 110.676C151.576 108.773 145.754 93.5703 145.629 90.1723C145.504 86.7743 147.419 75.5338 148.459 72.8926C149.499 70.2515 152.619 59.936 153.947 57.6312C155.274 55.3264 161.065 42.8307 161.065 42.8307Z" fill="black"/>
<path d="M161.412 42.8307C161.412 42.8307 161.296 41.7935 162.799 43.5782C164.301 45.3628 167.131 46.9201 167.131 46.9201C167.131 46.9201 173.54 51.4114 173.89 53.4857C174.24 55.56 176.314 64.5424 175.218 67.5387C174.121 70.5349 165.732 84.8744 165.732 84.8744C165.732 84.8744 167.918 87.4658 167.409 90.5181C166.9 93.5703 166.253 97.775 166.541 98.6969C166.828 99.6189 166.194 101.921 167.165 102.727C168.137 103.534 169.186 104.907 166.125 106.761C166.125 106.761 165.547 108.318 166.066 108.66C166.584 109.003 158.385 112.579 155.149 110.676C151.914 108.773 146.091 93.5703 145.967 90.1723C145.842 86.7743 147.756 75.5338 148.796 72.8926C149.837 70.2515 152.957 59.936 154.284 57.6312C155.612 55.3264 161.412 42.8307 161.412 42.8307Z" fill="#4C4981"/>
<path opacity="0.1" d="M163.724 52.6198C163.724 52.6198 158.757 58.0921 158.929 61.7206C158.929 61.7206 158.86 55.8465 163.724 52.6198Z" fill="black"/>
<path opacity="0.1" d="M156.849 61.6054C156.849 61.7798 153.5 74.2195 153.672 75.7736C153.844 77.3278 152.691 81.9343 152.691 81.9343L151.13 81.5294C151.13 81.5294 152.342 75.1383 152.573 72.7774C152.804 70.4166 156.849 61.6054 156.849 61.6054Z" fill="black"/>
<path opacity="0.1" d="M155.521 97.0836C155.637 97.258 163.436 106.069 161.24 106.701C159.045 107.334 155.521 97.0836 155.521 97.0836Z" fill="black"/>
<path opacity="0.1" d="M161.934 94.838C162.105 94.9533 165.057 101.173 165.398 99.5099C165.738 97.8467 162.858 104.06 162.396 99.4507L161.934 94.838Z" fill="black"/>
<path opacity="0.1" d="M146.96 44.7866C146.96 44.7866 143.74 42.8307 139.695 47.8389C139.695 47.8389 136.749 49.5115 135.884 49.9132C135.019 50.315 134.035 61.0292 134.035 61.0292C134.035 61.0292 132.13 65.6357 132.648 68.2862C133.167 70.9367 131.149 80.0375 131.149 80.0375C131.149 80.0375 127.797 96.3922 127.913 96.8562C128.029 97.3203 131.321 91.7296 131.261 88.967C131.202 86.2044 134.035 77.5614 134.441 77.0444C134.847 76.5274 137.621 61.7206 137.621 61.7206C137.621 61.7206 139.873 55.4416 141.316 53.3704C142.759 51.2992 144.552 47.3811 145.301 46.6896C145.84 46.2233 146.443 45.8353 147.091 45.5373L146.96 44.7866Z" fill="black"/>
<path d="M146.991 44.7866C146.991 44.7866 143.38 42.8307 139.336 47.8389C139.336 47.8389 136.39 49.5115 135.525 49.9132C134.66 50.315 133.676 61.0292 133.676 61.0292C133.676 61.0292 131.771 65.6357 132.289 68.2862C132.808 70.9367 130.79 80.0375 130.79 80.0375C130.79 80.0375 127.438 96.3922 127.554 96.8562C127.669 97.3203 130.962 91.7296 130.905 88.967C130.849 86.2044 133.676 77.5614 134.082 77.0444C134.488 76.5274 137.258 61.7237 137.258 61.7237C137.258 61.7237 139.51 55.4447 140.954 53.3735C142.397 51.3023 144.189 47.3842 144.939 46.6928C145.689 46.0013 147.076 45.5404 147.076 45.5404L146.991 44.7866Z" fill="#4C4981"/>
<path d="M131.149 80.7849C131.149 80.7849 124.277 76.2937 120.954 78.5082C117.631 80.7226 112.208 83.8653 117.546 86.142C122.884 88.4188 130.281 87.9827 130.281 87.9827L131.149 80.7849Z" fill="#FEC2BE"/>
<path opacity="0.1" d="M135.928 124.124C136.952 126.305 137.802 137.327 138.37 140.819C139.192 139.417 140.185 137.738 140.519 137.215C140.944 136.545 141.969 133.711 142.54 132.079C141.887 130.497 140.085 125.962 140.085 124.293C140.085 122.262 136.793 119.714 136.793 119.714C136.793 119.714 134.713 121.533 135.928 124.124Z" fill="black"/>
<path opacity="0.1" d="M158.02 157.949C158.02 157.949 150.396 154.707 148.144 157.014C145.892 159.322 158.02 157.949 158.02 157.949Z" fill="black"/>
<path opacity="0.1" d="M153.732 159.244C153.732 159.244 161.443 163.564 158.801 164.296C156.158 165.028 153.732 159.244 153.732 159.244Z" fill="black"/>
<path opacity="0.1" d="M130.687 155.485C130.687 155.485 133.979 155.7 132.72 156.348C131.461 156.997 130.687 155.485 130.687 155.485Z" fill="black"/>
<path opacity="0.1" d="M126.57 156.479C126.614 156.694 136.143 159.761 134.282 161.151C132.42 162.54 126.57 156.479 126.57 156.479Z" fill="black"/>
<path opacity="0.1" d="M156.893 182.915C155.465 182.7 147.494 179.028 150.611 181.669C153.728 184.311 156.893 182.915 156.893 182.915Z" fill="black"/>
<path opacity="0.1" d="M152.951 185.809C152.951 185.809 152.257 188.487 149.615 188.142C146.972 187.796 152.951 185.809 152.951 185.809Z" fill="black"/>
<path opacity="0.1" d="M155.162 191.256C154.684 191.125 149.009 188.534 148.881 189.742C148.753 190.951 154.294 193.069 154.728 192.421C154.977 192.079 155.127 191.677 155.162 191.256Z" fill="black"/>
<path opacity="0.1" d="M136.793 188.142C136.1 188.098 129.609 186.026 128.303 187.883L136.793 188.142Z" fill="black"/>
<path opacity="0.1" d="M130.902 189.35C130.902 189.35 129.775 188.356 128.65 188.877C127.526 189.397 130.902 189.35 130.902 189.35Z" fill="black"/>
<path opacity="0.1" d="M145.283 200.064C145.211 200.431 145.034 200.77 144.772 201.038C144.511 201.307 144.177 201.494 143.811 201.576L145.283 200.064Z" fill="black"/>
<path d="M112.23 204.126C112.664 205.895 118.73 206.069 121.632 205.593C124.533 205.116 130.555 203.403 130.555 203.403C130.555 203.403 136.88 202.799 138.742 202.02C140.604 201.241 139.132 199.254 139.132 199.254C139.132 199.254 139.132 199.189 139.132 199.071C139.176 198.348 139.307 195.729 138.861 195.022C138.339 194.203 138.642 191.524 138.642 191.524C138.642 191.524 129.678 193.253 129.503 192.43C129.328 191.608 127.941 190.443 127.295 190.185C126.648 189.926 126.167 192.343 126.167 192.343C126.167 192.343 122.107 195.8 121.835 197.052C121.563 198.304 118.711 198.952 118.711 198.952C118.711 198.952 114.379 200.164 113.252 200.768C112.925 200.921 112.643 201.156 112.433 201.449C112.224 201.743 112.093 202.085 112.055 202.444C112.013 203.01 112.072 203.58 112.23 204.126Z" fill="#CA8496"/>
<path opacity="0.1" d="M112.23 204.126C112.664 205.895 118.73 206.069 121.632 205.593C124.533 205.116 130.555 203.403 130.555 203.403C130.555 203.403 136.88 202.799 138.742 202.02C140.604 201.242 139.132 199.254 139.132 199.254C139.132 199.254 139.132 199.189 139.132 199.071L130.074 201.07C130.074 201.07 125.614 202.97 122.756 202.97C120.257 202.97 114.666 203.992 112.071 202.444C112.023 203.009 112.077 203.579 112.23 204.126Z" fill="black"/>
<path opacity="0.1" d="M124.502 197.298C124.502 197.298 124.936 200.151 126.67 201.101L124.502 197.298Z" fill="black"/>
<path opacity="0.1" d="M135.862 27.6439C136.026 27.7312 136.197 27.8021 136.374 27.8557C137.19 28.0737 137.983 27.5287 138.705 27.0926C139.426 26.6566 140.422 26.3327 141.047 26.8964C141.862 27.6346 141.272 29.2137 142.112 29.9238C142.643 30.3754 143.487 30.2353 144.077 30.5934C144.667 30.9516 144.845 31.7739 144.995 32.4778C145.145 33.1817 145.442 33.979 146.132 34.1846C146.822 34.3901 147.46 33.9385 148.137 33.9634C148.278 33.9634 148.45 33.9852 148.537 33.8824C148.6 33.7913 148.623 33.6794 148.603 33.571C148.518 32.7339 148.594 31.8885 148.825 31.0793C149.103 30.2851 149.762 29.5625 150.583 29.4348C151.801 29.2479 152.823 30.3131 153.538 31.3036C154.29 32.3557 154.974 33.4542 155.587 34.5926C155.625 34.6665 155.66 34.7424 155.69 34.8199C156.286 33.4805 156.593 32.0308 156.59 30.5654C156.59 28.0248 155.671 25.5694 154 23.6512C152.33 21.733 150.02 20.481 147.498 20.1258C144.975 19.7706 142.408 20.336 140.27 21.718C138.132 23.1 136.567 25.2055 135.862 27.647V27.6439Z" fill="black"/>
<path d="M153.55 31.1291C152.835 30.1294 151.814 29.0673 150.596 29.2604C149.762 29.3881 149.115 30.1075 148.837 30.9018C148.606 31.7109 148.532 32.5566 148.618 33.3934C148.635 33.5026 148.61 33.6141 148.547 33.7049C148.453 33.8077 148.29 33.7921 148.15 33.7859C147.472 33.761 146.797 34.2001 146.145 34.007C145.492 33.8139 145.158 33.0041 145.008 32.3002C144.858 31.5963 144.695 30.799 144.089 30.4315C143.483 30.0639 142.656 30.2134 142.125 29.7618C141.284 29.0486 141.875 27.4695 141.06 26.7345C140.435 26.1676 139.439 26.4915 138.717 26.9276C137.995 27.3636 137.202 27.9087 136.387 27.6937C136.112 27.619 135.865 27.4602 135.597 27.3574C134.313 26.8715 132.648 27.6969 131.592 26.8185C131.209 26.4369 130.933 25.9609 130.793 25.4388C130.503 24.7341 130.307 23.995 130.209 23.2399C130.115 22.4755 130.326 21.705 130.796 21.0939C131.483 20.2842 132.645 20.0848 133.523 19.4868C134.269 18.9791 134.772 18.2005 135.266 17.4374C135.759 16.6744 136.237 15.8801 136.955 15.3413C137.674 14.8025 138.692 14.5377 139.498 14.9458C139.753 15.1206 140.034 15.2532 140.332 15.3382C140.662 15.3448 140.987 15.2573 141.269 15.0859C144.274 13.675 147.772 13.9242 151.067 14.3446C152.385 14.5128 153.722 14.7122 154.925 15.279C156.127 15.8459 157.189 16.8363 157.526 18.1226C157.795 19.138 157.589 20.2405 157.914 21.2372C158.132 21.9162 158.582 22.483 158.851 23.1651C159.554 24.9841 158.713 26.9836 158.357 28.9022C157.967 30.9983 158.164 33.2626 157.27 35.2528C157.095 35.6422 156.899 36.3243 156.458 36.0657C156.146 35.8758 155.815 34.7701 155.627 34.4275C155.007 33.2848 154.313 32.183 153.55 31.1291Z" fill="#9A5E7F"/>
<path opacity="0.1" d="M172.56 64.8881L174.121 69.3233C174.121 69.3233 170.423 83.0274 168.69 85.9115C166.956 88.7956 164.417 92.4771 164.417 92.4771C164.417 92.4771 160.144 94.6074 155.174 93.6295C150.205 92.6515 135.709 90.057 135.709 90.057C135.709 90.057 134.497 90.2875 133.863 89.3656C133.229 88.4437 129.934 87.9827 129.934 87.9827C129.934 87.9827 126.123 82.4543 130.802 80.1496C130.802 80.1496 131.377 81.4172 133.863 80.5545C136.349 79.6917 137.096 81.2459 137.096 81.2459C137.096 81.2459 141.141 82.0526 143.393 81.7629C145.645 81.4733 151.248 81.3611 151.826 80.9002C151.972 80.771 152.163 80.7044 152.358 80.7149C152.553 80.7254 152.735 80.8121 152.866 80.9562C152.866 80.9562 154.25 80.4392 154.712 79.9222C155.174 79.4052 155.812 80.4953 155.812 80.4953C155.812 80.4953 156.621 80.0374 156.39 79.4612C156.158 78.885 157.139 76.6955 157.139 76.6955C157.139 76.6955 157.601 75.2565 157.311 74.1042C157.02 72.9518 158.757 68.8094 158.757 68.8094C158.78 68.1105 158.702 67.412 158.526 66.7351C158.235 65.6979 160.712 63.6205 160.712 63.6205C160.712 63.6205 163.139 51.8723 168.28 55.7312C173.422 59.5902 172.56 64.8881 172.56 64.8881Z" fill="black"/>
<path d="M172.916 64.8881L174.477 69.3233C174.477 69.3233 170.779 83.0274 169.046 85.9115C167.312 88.7956 164.773 92.4771 164.773 92.4771C164.773 92.4771 160.497 94.6074 155.531 93.6295C150.564 92.6515 136.059 90.057 136.059 90.057C136.059 90.057 134.847 90.2875 134.213 89.3656C133.579 88.4437 130.284 87.9827 130.284 87.9827C130.284 87.9827 126.473 82.4543 131.152 80.1496C131.152 80.1496 131.727 81.4172 134.213 80.5545C136.699 79.6917 137.446 81.2459 137.446 81.2459C137.446 81.2459 141.506 82.0526 143.743 81.7629C145.979 81.4733 151.598 81.3611 152.176 80.9002C152.321 80.7712 152.512 80.7047 152.706 80.7152C152.9 80.7257 153.083 80.8123 153.213 80.9562C153.213 80.9562 154.6 80.4392 155.062 79.9222C155.524 79.4052 156.162 80.4953 156.162 80.4953C156.162 80.4953 156.967 80.0374 156.736 79.4612C156.505 78.885 157.489 76.6955 157.489 76.6955C157.489 76.6955 157.951 75.2565 157.661 74.1042C157.37 72.9518 159.107 68.8094 159.107 68.8094C159.13 68.1105 159.052 67.412 158.876 66.7351C158.585 65.6979 161.062 63.6205 161.062 63.6205C161.062 63.6205 163.489 51.8723 168.63 55.7312C173.772 59.5902 172.916 64.8881 172.916 64.8881Z" fill="#4C4981"/>
<path opacity="0.1" d="M135.362 83.4354C135.422 83.8372 136.693 85.4506 136.231 85.7371C135.769 86.0236 135.016 85.8523 135.709 86.7743C136.403 87.6962 136.334 89.079 135.884 88.9046C135.434 88.7302 134.672 86.659 134.672 85.8523C134.672 85.0457 135.362 83.4354 135.362 83.4354Z" fill="black"/>
<path opacity="0.1" d="M152.52 82.5135C152.52 82.5135 152.866 86.5438 155.696 87.6962C158.526 88.8486 152.52 82.5135 152.52 82.5135Z" fill="black"/>
<path opacity="0.1" d="M158.411 81.1307C158.582 81.1868 162.452 83.2611 160.719 84.4696C158.985 85.678 158.411 81.1307 158.411 81.1307Z" fill="black"/>
<path opacity="0.1" d="M158.642 78.2497C158.642 78.2497 164.301 79.4021 162.39 80.3801C160.478 81.358 158.642 78.2497 158.642 78.2497Z" fill="black"/>
<g opacity="0.1">
<path opacity="0.1" d="M148.825 29.9206C149.103 29.1264 149.762 28.407 150.583 28.2793C151.801 28.0924 152.823 29.1545 153.538 30.148C154.291 31.1986 154.975 32.2961 155.587 33.4339C155.774 33.7796 156.093 34.8853 156.418 35.0753C156.858 35.3338 157.042 34.6486 157.23 34.2593C158.123 32.2784 157.926 30.0079 158.317 27.9117C158.545 26.6877 158.966 25.4201 159.06 24.2085C159.191 25.7128 158.601 27.2982 158.317 28.8337C157.926 30.9298 158.123 33.1941 157.23 35.1812C157.055 35.5705 156.858 36.2526 156.418 35.9972C156.105 35.8072 155.774 34.7015 155.587 34.3558C154.979 33.2195 154.299 32.123 153.55 31.073C152.835 30.0701 151.814 29.0112 150.596 29.2043C149.762 29.332 149.115 30.0515 148.837 30.8457C148.698 31.2642 148.62 31.7006 148.606 32.1413C148.538 31.394 148.612 30.6405 148.825 29.9206Z" fill="black"/>
<path opacity="0.1" d="M130.78 24.4516C130.921 24.9734 131.197 25.4491 131.58 25.8313C132.636 26.7096 134.3 25.8812 135.584 26.3702C135.841 26.4955 136.105 26.6067 136.374 26.7034C137.19 26.9214 137.983 26.392 138.705 25.9403C139.426 25.4887 140.422 25.1804 141.047 25.7441C141.862 26.4823 141.272 28.0614 142.112 28.7715C142.643 29.2262 143.487 29.083 144.077 29.4411C144.667 29.7993 144.845 30.6216 144.995 31.3099C145.145 31.9982 145.442 32.8111 146.132 33.0167C146.822 33.2222 147.46 32.7706 148.137 32.7955C148.278 32.7955 148.45 32.8173 148.534 32.7146C148.557 32.6904 148.574 32.6617 148.584 32.6305C148.584 32.8609 148.584 33.0914 148.606 33.3219C148.622 33.431 148.597 33.5423 148.534 33.6334C148.44 33.7361 148.278 33.7206 148.137 33.7143C147.46 33.6894 146.785 34.1286 146.132 33.9355C145.479 33.7424 145.145 32.9295 144.995 32.2287C144.845 31.5279 144.683 30.7275 144.077 30.3444C143.471 29.9613 142.643 30.1263 142.112 29.6747C141.272 28.9646 141.862 27.3855 141.047 26.6474C140.422 26.0836 139.426 26.4075 138.705 26.8436C137.983 27.2796 137.19 27.8247 136.374 27.6066C136.1 27.5319 135.853 27.3762 135.584 27.2734C134.3 26.7844 132.636 27.6129 131.58 26.7346C131.196 26.3517 130.92 25.8747 130.78 25.3517C130.49 24.6473 130.294 23.908 130.196 23.1528C130.174 22.8954 130.181 22.6364 130.215 22.3804C130.323 23.0901 130.513 23.7851 130.78 24.4516Z" fill="black"/>
</g>
</svg>
