<svg width="25" height="25" viewBox="0 0 25 25" fill="none" xmlns="http://www.w3.org/2000/svg">
<path fill-rule="evenodd" clip-rule="evenodd" d="M13.3887 1.68033H20.7755L21.7983 3.7259L18.8436 10.8854L18.3014 12.6365C18.7381 13.5842 18.9976 14.7697 18.9976 16.0561C18.9976 19.1629 17.4839 21.6814 15.6167 21.6814C15.5782 21.6814 15.5399 21.6804 15.5017 21.6782L15.5007 21.6814L11.6937 21.6815C11.6937 22.7854 10.7988 23.6803 9.69483 23.6803C8.59088 23.6803 7.69595 22.7854 7.69595 21.6815L5.92634 21.6814L5.84112 21.6814L5.84074 21.6797C4.01309 21.6041 2.54547 19.1153 2.54547 16.0561C2.54547 14.3705 2.99108 12.858 3.69699 11.827L3.69612 11.8229C3.69612 11.8229 6.17724 8.16277 8.34126 5.99875C10.5053 3.83473 13.3887 1.68033 13.3887 1.68033ZM8.49145 21.6815C8.49145 22.3461 9.03022 22.8848 9.69483 22.8848C10.3594 22.8848 10.8982 22.3461 10.8982 21.6815H8.49145ZM15.6167 20.3745C16.9746 20.3745 18.0755 18.5429 18.0755 16.2834C18.0755 14.0239 16.9746 12.1923 15.6167 12.1923C14.2587 12.1923 13.1579 14.0239 13.1579 16.2834C13.1579 18.5429 14.2587 20.3745 15.6167 20.3745ZM10.1595 5.88511H16.5235L15.1598 7.41929H8.79583L10.1595 5.88511Z" fill="url(#paint0_linear)"/>
<defs>
<linearGradient id="paint0_linear" x1="2.54547" y1="23.6803" x2="17.3311" y2="-0.996305" gradientUnits="userSpaceOnUse">
<stop stop-color="#E2666A"/>
<stop offset="1" stop-color="#F1D772"/>
</linearGradient>
</defs>
</svg>
