<svg width="25" height="25" viewBox="0 0 25 25" fill="none" xmlns="http://www.w3.org/2000/svg">
<path d="M12.0041 3.94202C12.4392 3.75134 12.928 3.75134 13.3631 3.94202L24.4644 8.80744C24.754 8.93435 24.7574 9.367 24.47 9.4991L22.0173 10.6261V16.4173C22.0173 16.7285 21.7789 16.9808 21.4847 16.9808C21.1905 16.9808 20.9521 16.7285 20.9521 16.4173V11.1156L13.3909 14.59C12.9397 14.7973 12.4275 14.7973 11.9763 14.59L0.897225 9.4991C0.609736 9.367 0.613213 8.93435 0.902783 8.80744L12.0041 3.94202Z" fill="url(#paint0_linear)"/>
<path d="M6.49724 13.3932L12.127 15.9302C12.4826 16.0904 12.8846 16.0904 13.2402 15.9302L18.8699 13.3932V19.0193C18.8699 19.0931 18.8505 19.1636 18.8079 19.222C18.4686 19.6864 16.7042 21.799 12.6836 21.799C8.66295 21.799 6.89858 19.6864 6.5593 19.222C6.51665 19.1636 6.49724 19.0931 6.49724 19.0193V13.3932Z" fill="url(#paint1_linear)"/>
<defs>
<linearGradient id="paint0_linear" x1="0.683594" y1="21.799" x2="10.0289" y2="-1.9642" gradientUnits="userSpaceOnUse">
<stop stop-color="#E2666A"/>
<stop offset="1" stop-color="#F1D772"/>
</linearGradient>
<linearGradient id="paint1_linear" x1="0.683594" y1="21.799" x2="10.0289" y2="-1.9642" gradientUnits="userSpaceOnUse">
<stop stop-color="#E2666A"/>
<stop offset="1" stop-color="#F1D772"/>
</linearGradient>
</defs>
</svg>
