<svg width="25" height="25" viewBox="0 0 25 25" fill="none" xmlns="http://www.w3.org/2000/svg">
<path fill-rule="evenodd" clip-rule="evenodd" d="M15.8475 10.6195C15.8475 12.4682 14.3488 13.9669 12.5001 13.9669C10.6514 13.9669 9.15268 12.4682 9.15268 10.6195C9.15268 8.77075 10.6514 7.27206 12.5001 7.27206C14.3488 7.27206 15.8475 8.77075 15.8475 10.6195ZM18.7975 20.9801C18.7975 17.5021 15.978 14.6827 12.5 14.6827C9.02205 14.6827 6.20257 17.5021 6.20257 20.9801H18.7975ZM16.9552 15.3594C18.0275 16.1277 18.8932 17.1661 19.4529 18.3751H24C24 16.0732 22.134 14.2072 19.8321 14.2072C18.7165 14.2072 17.7032 14.6456 16.9552 15.3594ZM5.54662 18.3751C6.10637 17.166 6.97219 16.1276 8.04465 15.3592C7.29662 14.6455 6.28343 14.2072 5.16788 14.2072C2.86602 14.2072 1 16.0732 1 18.3751H5.54662ZM7.38325 11.518C7.38325 12.7416 6.39137 13.7335 5.16783 13.7335C3.94428 13.7335 2.95241 12.7416 2.95241 11.518C2.95241 10.2945 3.94428 9.30261 5.16783 9.30261C6.39137 9.30261 7.38325 10.2945 7.38325 11.518ZM22.0475 11.518C22.0475 12.7416 21.0557 13.7335 19.8321 13.7335C18.6086 13.7335 17.6167 12.7416 17.6167 11.518C17.6167 10.2945 18.6086 9.30262 19.8321 9.30262C21.0557 9.30262 22.0475 10.2945 22.0475 11.518Z" fill="url(#paint0_linear)"/>
<defs>
<linearGradient id="paint0_linear" x1="1" y1="20.9801" x2="6.94929" y2="1.94343" gradientUnits="userSpaceOnUse">
<stop stop-color="#E2666A"/>
<stop offset="1" stop-color="#F1D772"/>
</linearGradient>
</defs>
</svg>
