<svg width="25" height="25" viewBox="0 0 25 25" fill="none" xmlns="http://www.w3.org/2000/svg">
<path fill-rule="evenodd" clip-rule="evenodd" d="M13.8048 4.82226C16.1764 2.45064 20.0216 2.45065 22.3932 4.82226C24.7648 7.19388 24.7648 11.039 22.3932 13.4106L21.8525 13.9513H16.7648L14.729 8.28828C14.6224 7.99157 14.3415 7.79325 14.0262 7.792C13.7109 7.79075 13.4285 7.98684 13.3195 8.2827L11.0429 14.4617L9.58045 11.1903C9.453 10.9052 9.16225 10.7289 8.85054 10.7477C8.53883 10.7666 8.2714 10.9766 8.17919 11.2749L7.35201 13.9513H3.66799L3.12734 13.4107C0.755727 11.039 0.755729 7.19389 3.12735 4.82227C5.49896 2.45065 9.34412 2.45066 11.7157 4.82227L12.7603 5.86679L13.8048 4.82226ZM5.16798 15.4513L12.7603 23.0436L20.3525 15.4513H16.2374C15.921 15.4513 15.6386 15.2527 15.5316 14.955L14.0146 10.7349L11.8137 16.7086C11.7082 16.9948 11.44 17.1886 11.1352 17.1989C10.8303 17.2092 10.5497 17.0338 10.4252 16.7554L9.02406 13.6211L8.62177 14.9228C8.52464 15.237 8.23411 15.4513 7.90521 15.4513H5.16798Z" fill="url(#paint0_linear)"/>
<defs>
<linearGradient id="paint0_linear" x1="1.34863" y1="23.0435" x2="12.9151" y2="-2.12883" gradientUnits="userSpaceOnUse">
<stop stop-color="#E2666A"/>
<stop offset="1" stop-color="#F1D772"/>
</linearGradient>
</defs>
</svg>
