<svg width="25" height="25" viewBox="0 0 25 25" fill="none" xmlns="http://www.w3.org/2000/svg">
<path fill-rule="evenodd" clip-rule="evenodd" d="M22.0723 14.3748L21.2189 12.5005L21.1909 12.5276L19.4562 10.7279L18.6676 12.3944C18.5849 12.5691 18.409 12.6806 18.2157 12.6806C18.0224 12.6806 17.8464 12.5691 17.7637 12.3944L17.0599 10.907C16.7456 11.1606 16.3876 11.4474 16.0525 11.7118C15.8207 11.8946 15.5986 12.0679 15.4087 12.2126L17.0509 15.0792C18.9155 15.0591 20.5819 14.8065 22.0723 14.3748ZM16.0753 15.1021L14.0973 11.6761L14.0561 11.7259L11.3303 9.47254L10.0695 11.5958C9.97939 11.7475 9.816 11.8405 9.63956 11.8405C9.46312 11.8405 9.29974 11.7475 9.20965 11.5958L8.08912 9.70883C7.58731 10.0326 6.96737 10.4294 6.39482 10.7894C6.13194 10.9547 5.87817 11.1128 5.6499 11.2528L0.693771 19.837C0.501321 20.1704 0.741884 20.587 1.12678 20.587H2.43895C3.27236 19.6422 4.39364 18.6066 5.95248 17.6918C8.27203 16.3307 11.4954 15.2742 16.0753 15.1021ZM5.29612 20.587C5.77758 20.1857 6.32868 19.79 6.96468 19.4168C9.09453 18.167 12.2508 17.1278 17.0562 17.0792C17.1094 17.0787 17.1626 17.078 17.2156 17.0771L18.809 19.837C19.0015 20.1704 18.7609 20.587 18.376 20.587H5.29612ZM18.175 17.0415C19.9041 16.9415 21.4778 16.6521 22.9091 16.2126L24.5789 19.8798C24.7297 20.2109 24.4876 20.587 24.1239 20.587H19.3444C19.728 20.5863 19.9681 20.1715 19.7773 19.8385L18.175 17.0415ZM10.1844 4.89879C9.99195 4.56545 9.51083 4.56546 9.31838 4.89879L6.72 9.39932C7.19403 9.09674 7.64526 8.80568 7.98133 8.58739C8.09546 8.51325 8.23487 8.48885 8.3674 8.5198C8.49993 8.55075 8.61411 8.63439 8.6836 8.7514L9.63956 10.3613L10.7688 8.45967C10.8433 8.33407 10.9691 8.24736 11.1131 8.22235C11.257 8.19734 11.4047 8.23652 11.5173 8.3296L12.7568 9.35434L10.1844 4.89879ZM17.6828 6.73327C17.8606 6.34287 18.4152 6.34286 18.5929 6.73327L20.0238 9.87586L19.6738 9.51276C19.5598 9.39449 19.395 9.33976 19.2329 9.36634C19.0709 9.39292 18.9322 9.49742 18.8619 9.64589L18.2157 11.0116L17.6915 9.90376C17.6257 9.76483 17.4997 9.66385 17.3498 9.62994C17.1999 9.59603 17.0427 9.63295 16.9236 9.73006C16.6707 9.9362 16.3252 10.2158 15.9665 10.5027L17.6828 6.73327Z" fill="url(#paint0_linear)"/>
<defs>
<linearGradient id="paint0_linear" x1="0.626038" y1="20.5871" x2="8.17174" y2="-1.08077" gradientUnits="userSpaceOnUse">
<stop stop-color="#6B7991"/>
<stop offset="1" stop-color="#D0D3D8"/>
</linearGradient>
</defs>
</svg>
