<svg width="25" height="25" viewBox="0 0 25 25" fill="none" xmlns="http://www.w3.org/2000/svg">
<path fill-rule="evenodd" clip-rule="evenodd" d="M3.10798 4.31238C3.10798 4.31238 5.2537 4.22742 7.86576 4.22742C10.4778 4.22742 12.6235 5.07702 12.6235 5.07702V18.8739C12.6235 18.8739 10.4778 17.991 7.86576 17.991H3.10798V4.31238ZM2.35621 6.28926C1.51826 6.42124 0.942749 6.53185 0.942749 6.53185V21.0084C0.942749 21.0084 4.47917 20.3287 6.78314 20.3287C9.08711 20.3287 12.6235 21.0084 12.6235 21.0084L12.6235 19.4445C12.6235 19.4445 9.39237 18.7223 6.94407 18.7223C4.49576 18.7223 2.35621 19.2321 2.35621 19.2321V6.28926ZM22.7884 4.29064C22.7884 4.29064 20.6318 4.22742 18.0198 4.22742C15.4077 4.22742 13.262 5.07702 13.262 5.07702V18.8739C13.262 18.8739 15.4077 17.991 18.0198 17.991H22.7884V4.29064ZM23.5293 6.28926C24.3672 6.42124 24.9427 6.53185 24.9427 6.53185V21.0084C24.9427 21.0084 21.4063 20.3287 19.1024 20.3287C16.7984 20.3287 13.262 21.0084 13.262 21.0084L13.262 19.4445C13.262 19.4445 16.4931 18.7223 18.9414 18.7223C21.3897 18.7223 23.5293 19.2321 23.5293 19.2321V6.28926Z" fill="url(#paint0_linear)"/>
<defs>
<linearGradient id="paint0_linear" x1="0.942749" y1="21.0084" x2="9.21001" y2="-1.54073" gradientUnits="userSpaceOnUse">
<stop stop-color="#E2666A"/>
<stop offset="1" stop-color="#F1D772"/>
</linearGradient>
</defs>
</svg>
