<svg width="25" height="25" viewBox="0 0 25 25" fill="none" xmlns="http://www.w3.org/2000/svg">
<path d="M3.74505 4.33769C3.74505 4.33769 5.71196 4.25981 8.10634 4.25981C10.5007 4.25981 12.4676 5.03861 12.4676 5.03861V17.6858C12.4676 17.6858 10.5007 16.8764 8.10634 16.8764H3.74505V4.33769Z" fill="url(#paint0_linear)"/>
<path d="M3.05593 6.14984C2.28781 6.27082 1.76025 6.37221 1.76025 6.37221V19.6424C1.76025 19.6424 5.00197 19.0194 7.11394 19.0194C9.22591 19.0194 12.4676 19.6424 12.4676 19.6424L12.4676 18.2088C12.4676 18.2088 9.50574 17.5468 7.26146 17.5468C5.01718 17.5468 3.05593 18.0141 3.05593 18.0141V6.14984Z" fill="url(#paint1_linear)"/>
<path d="M21.7854 4.31776C21.7854 4.31776 19.8086 4.25981 17.4142 4.25981C15.0198 4.25981 13.0529 5.03861 13.0529 5.03861V17.6858C13.0529 17.6858 15.0198 16.8764 17.4142 16.8764H21.7854V4.31776Z" fill="url(#paint2_linear)"/>
<path d="M22.4646 6.14984C23.2327 6.27082 23.7603 6.37221 23.7603 6.37221V19.6424C23.7603 19.6424 20.5185 19.0194 18.4066 19.0194C16.2946 19.0194 13.0529 19.6424 13.0529 19.6424L13.0529 18.2088C13.0529 18.2088 16.0148 17.5468 18.259 17.5468C20.5033 17.5468 22.4646 18.0141 22.4646 18.0141V6.14984Z" fill="url(#paint3_linear)"/>
<defs>
<linearGradient id="paint0_linear" x1="1.76025" y1="19.6424" x2="9.33859" y2="-1.02765" gradientUnits="userSpaceOnUse">
<stop stop-color="#E2666A"/>
<stop offset="1" stop-color="#F1D772"/>
</linearGradient>
<linearGradient id="paint1_linear" x1="1.76025" y1="19.6424" x2="9.33859" y2="-1.02765" gradientUnits="userSpaceOnUse">
<stop stop-color="#E2666A"/>
<stop offset="1" stop-color="#F1D772"/>
</linearGradient>
<linearGradient id="paint2_linear" x1="1.76025" y1="19.6424" x2="9.33859" y2="-1.02765" gradientUnits="userSpaceOnUse">
<stop stop-color="#E2666A"/>
<stop offset="1" stop-color="#F1D772"/>
</linearGradient>
<linearGradient id="paint3_linear" x1="1.76025" y1="19.6424" x2="9.33859" y2="-1.02765" gradientUnits="userSpaceOnUse">
<stop stop-color="#E2666A"/>
<stop offset="1" stop-color="#F1D772"/>
</linearGradient>
</defs>
</svg>
