<svg width="25" height="25" viewBox="0 0 25 25" fill="none" xmlns="http://www.w3.org/2000/svg">
<path fill-rule="evenodd" clip-rule="evenodd" d="M12.2127 2.14746C11.1082 2.14746 10.2127 3.04289 10.2127 4.14746V7.38168C10.2127 8.46572 11.0915 9.34451 12.1756 9.34451V11.3073L14.4655 9.34451H18.0269C19.1314 9.34451 20.0269 8.44908 20.0269 7.34451V4.14746C20.0269 3.04289 19.1314 2.14746 18.0269 2.14746H12.2127ZM10.7851 12.501C10.7851 14.3078 9.32043 15.7724 7.51369 15.7724C5.70696 15.7724 4.24231 14.3078 4.24231 12.501C4.24231 10.6943 5.70696 9.22967 7.51369 9.22967C9.32043 9.22967 10.7851 10.6943 10.7851 12.501ZM7.51374 16.4267C4.26161 16.4267 1.62524 19.063 1.62524 22.3152H13.4022C13.4022 19.063 10.7659 16.4267 7.51374 16.4267ZM19.0453 17.2264C20.4505 17.2264 21.5897 16.0872 21.5897 14.682C21.5897 13.2767 20.4505 12.1375 19.0453 12.1375C17.64 12.1375 16.5009 13.2767 16.5009 14.682C16.5009 16.0872 17.64 17.2264 19.0453 17.2264ZM19.0453 17.7352C16.5159 17.7352 14.4653 19.7857 14.4653 22.3152H23.6252C23.6252 19.7857 21.5747 17.7352 19.0453 17.7352Z" fill="url(#paint0_linear)"/>
<defs>
<linearGradient id="paint0_linear" x1="1.62524" y1="22.3152" x2="13.6292" y2="-2.65748" gradientUnits="userSpaceOnUse">
<stop stop-color="#6B7991"/>
<stop offset="1" stop-color="#D0D3D8"/>
</linearGradient>
</defs>
</svg>
