<svg width="25" height="25" viewBox="0 0 25 25" fill="none" xmlns="http://www.w3.org/2000/svg">
<path d="M23.4187 1.88275L18.6672 6.63419C17.0814 5.04832 14.5101 5.04832 12.9243 6.6342C11.3384 8.22008 11.3384 10.7913 12.9242 12.3772C14.5101 13.9631 17.0814 13.9631 18.6673 12.3772C20.2531 10.7913 20.2531 8.22008 18.6672 6.63419L23.4187 1.88275C23.4187 1.88275 24.5319 5.11101 22.1942 10.5099C19.8565 15.9089 16.5726 18.3022 16.5726 18.3022C16.5726 18.3022 16.7953 18.8032 16.6283 20.5286C16.4613 22.254 15.9314 23.6544 15.5986 23.6177C15.4268 23.5987 13.7637 21.5585 12.1952 19.5893C10.3749 20.1229 8.39094 19.6284 7.03196 18.2694C5.68027 16.9177 5.18382 14.9477 5.70362 13.1355C3.71702 11.5672 1.66122 9.89394 1.68378 9.70287C1.72731 9.33409 3.04743 8.84016 4.77286 8.67318C6.4983 8.5062 6.99923 8.72884 6.99923 8.72884C6.99923 8.72884 9.39257 5.44494 14.7915 3.10725C20.1905 0.769561 23.4187 1.88275 23.4187 1.88275Z" fill="url(#paint0_linear)"/>
<path d="M14.1589 7.8688C15.0629 6.96477 16.5286 6.96477 17.4326 7.86879L14.1589 11.1426C13.2548 10.2386 13.2548 8.77283 14.1589 7.8688Z" fill="url(#paint1_linear)"/>
<path d="M17.4327 11.1426C16.5286 12.0466 15.0629 12.0466 14.1589 11.1426L17.4326 7.86879C18.3367 8.77283 18.3367 10.2386 17.4327 11.1426Z" fill="url(#paint2_linear)"/>
<path d="M4.72485 16.4576C4.47893 16.2117 4.08022 16.2117 3.8343 16.4576L2.83633 17.4556C2.59041 17.7015 2.59041 18.1002 2.83633 18.3461C3.08225 18.592 3.48096 18.592 3.72688 18.3461L4.72485 17.3481C4.97077 17.1022 4.97077 16.7035 4.72485 16.4576Z" fill="url(#paint3_linear)"/>
<path d="M5.89378 18.5171C6.1397 18.2712 6.53841 18.2712 6.78433 18.5171C7.03025 18.763 7.03025 19.1617 6.78433 19.4076L4.5585 21.6335C4.31258 21.8794 3.91387 21.8794 3.66795 21.6335C3.42203 21.3875 3.42203 20.9888 3.66795 20.7429L5.89378 18.5171Z" fill="url(#paint4_linear)"/>
<path d="M8.84381 20.5766C8.59789 20.3306 8.19918 20.3306 7.95326 20.5766L6.95529 21.5745C6.70937 21.8204 6.70937 22.2192 6.95529 22.4651C7.20121 22.711 7.59992 22.711 7.84584 22.4651L8.84381 21.4671C9.08973 21.2212 9.08973 20.8225 8.84381 20.5766Z" fill="url(#paint5_linear)"/>
<defs>
<linearGradient id="paint0_linear" x1="1.68359" y1="23.6184" x2="15.4766" y2="-2.68563" gradientUnits="userSpaceOnUse">
<stop stop-color="#E2666A"/>
<stop offset="1" stop-color="#F1D772"/>
</linearGradient>
<linearGradient id="paint1_linear" x1="1.68359" y1="23.6184" x2="15.4766" y2="-2.68563" gradientUnits="userSpaceOnUse">
<stop stop-color="#E2666A"/>
<stop offset="1" stop-color="#F1D772"/>
</linearGradient>
<linearGradient id="paint2_linear" x1="1.68359" y1="23.6184" x2="15.4766" y2="-2.68563" gradientUnits="userSpaceOnUse">
<stop stop-color="#E2666A"/>
<stop offset="1" stop-color="#F1D772"/>
</linearGradient>
<linearGradient id="paint3_linear" x1="1.68359" y1="23.6184" x2="15.4766" y2="-2.68563" gradientUnits="userSpaceOnUse">
<stop stop-color="#E2666A"/>
<stop offset="1" stop-color="#F1D772"/>
</linearGradient>
<linearGradient id="paint4_linear" x1="1.68359" y1="23.6184" x2="15.4766" y2="-2.68563" gradientUnits="userSpaceOnUse">
<stop stop-color="#E2666A"/>
<stop offset="1" stop-color="#F1D772"/>
</linearGradient>
<linearGradient id="paint5_linear" x1="1.68359" y1="23.6184" x2="15.4766" y2="-2.68563" gradientUnits="userSpaceOnUse">
<stop stop-color="#E2666A"/>
<stop offset="1" stop-color="#F1D772"/>
</linearGradient>
</defs>
</svg>
