<svg width="25" height="25" viewBox="0 0 25 25" fill="none" xmlns="http://www.w3.org/2000/svg">
<path d="M22.9307 1.76116L18.3953 6.29663C16.8815 4.78284 14.4271 4.78285 12.9133 6.29664C11.3995 7.81044 11.3995 10.2648 12.9133 11.7786C14.4271 13.2924 16.8815 13.2924 18.3953 11.7786C19.9091 10.2648 19.909 7.81044 18.3953 6.29663L22.9307 1.76116C22.9307 1.76116 23.9933 4.84268 21.7619 9.99622C19.5305 15.1498 16.3959 17.4343 16.3959 17.4343C16.3959 17.4343 16.6084 17.9125 16.449 19.5595C16.2896 21.2065 15.7838 22.5432 15.4661 22.5082C15.3021 22.4901 13.7146 20.5426 12.2174 18.6629C10.4799 19.1722 8.58606 18.7002 7.28886 17.403C5.99861 16.1127 5.52472 14.2323 6.02089 12.5025C4.12459 11.0054 2.16224 9.40821 2.18377 9.22583C2.22533 8.87381 3.48544 8.40233 5.13244 8.24294C6.77945 8.08355 7.25761 8.29607 7.25761 8.29607C7.25761 8.29607 9.54216 5.16143 14.6957 2.93001C19.8492 0.698577 22.9307 1.76116 22.9307 1.76116Z" fill="url(#paint0_linear)"/>
<path d="M14.0918 7.47513C14.9547 6.61219 16.3538 6.61219 17.2168 7.47512L14.0918 10.6001C13.2289 9.73716 13.2289 8.33807 14.0918 7.47513Z" fill="url(#paint1_linear)"/>
<path d="M17.2168 10.6001C16.3539 11.463 14.9547 11.463 14.0918 10.6001L17.2168 7.47512C18.0797 8.33806 18.0797 9.73718 17.2168 10.6001Z" fill="url(#paint2_linear)"/>
<path d="M5.08661 15.6735C4.85187 15.4388 4.47128 15.4388 4.23654 15.6735L3.28393 16.6261C3.0492 16.8609 3.0492 17.2415 3.28394 17.4762C3.51868 17.7109 3.89926 17.7109 4.134 17.4762L5.08661 16.5236C5.32135 16.2888 5.32135 15.9083 5.08661 15.6735Z" fill="url(#paint3_linear)"/>
<path d="M6.20241 17.6394C6.43715 17.4046 6.81774 17.4046 7.05248 17.6394C7.28722 17.8741 7.28722 18.2547 7.05248 18.4895L4.92782 20.6141C4.69308 20.8489 4.31249 20.8489 4.07775 20.6141C3.84301 20.3794 3.84301 19.9988 4.07775 19.764L6.20241 17.6394Z" fill="url(#paint4_linear)"/>
<path d="M9.01835 19.6053C8.78361 19.3705 8.40302 19.3705 8.16828 19.6053L7.21567 20.5579C6.98093 20.7926 6.98093 21.1732 7.21567 21.4079C7.45041 21.6427 7.831 21.6427 8.06574 21.4079L9.01835 20.4553C9.25309 20.2206 9.25309 19.84 9.01835 19.6053Z" fill="url(#paint5_linear)"/>
<defs>
<linearGradient id="paint0_linear" x1="2.18359" y1="22.5088" x2="15.3496" y2="-2.59956" gradientUnits="userSpaceOnUse">
<stop stop-color="#E2666A"/>
<stop offset="1" stop-color="#F1D772"/>
</linearGradient>
<linearGradient id="paint1_linear" x1="2.18359" y1="22.5088" x2="15.3496" y2="-2.59956" gradientUnits="userSpaceOnUse">
<stop stop-color="#E2666A"/>
<stop offset="1" stop-color="#F1D772"/>
</linearGradient>
<linearGradient id="paint2_linear" x1="2.18359" y1="22.5088" x2="15.3496" y2="-2.59956" gradientUnits="userSpaceOnUse">
<stop stop-color="#E2666A"/>
<stop offset="1" stop-color="#F1D772"/>
</linearGradient>
<linearGradient id="paint3_linear" x1="2.18359" y1="22.5088" x2="15.3496" y2="-2.59956" gradientUnits="userSpaceOnUse">
<stop stop-color="#E2666A"/>
<stop offset="1" stop-color="#F1D772"/>
</linearGradient>
<linearGradient id="paint4_linear" x1="2.18359" y1="22.5088" x2="15.3496" y2="-2.59956" gradientUnits="userSpaceOnUse">
<stop stop-color="#E2666A"/>
<stop offset="1" stop-color="#F1D772"/>
</linearGradient>
<linearGradient id="paint5_linear" x1="2.18359" y1="22.5088" x2="15.3496" y2="-2.59956" gradientUnits="userSpaceOnUse">
<stop stop-color="#E2666A"/>
<stop offset="1" stop-color="#F1D772"/>
</linearGradient>
</defs>
</svg>
