<svg width="25" height="25" viewBox="0 0 25 25" fill="none" xmlns="http://www.w3.org/2000/svg">
<path fill-rule="evenodd" clip-rule="evenodd" d="M2.62604 4.66784C2.62604 4.22902 2.98178 3.87328 3.4206 3.87328H9.70549C9.88073 3.87328 10.0511 3.93121 10.1899 4.03805L12.3439 5.69491C12.4828 5.80176 12.6531 5.85969 12.8283 5.85969H21.8315C22.2703 5.85969 22.626 6.21542 22.626 6.65425V19.7645C22.626 20.2034 22.2703 20.5591 21.8315 20.5591H3.4206C2.98177 20.5591 2.62604 20.2034 2.62604 19.7645V4.66784ZM8.68458 9.97127C8.68458 9.64215 8.95138 9.37535 9.2805 9.37535H18.7159C19.045 9.37535 19.3119 9.64215 19.3119 9.97127C19.3119 10.3004 19.045 10.5672 18.7159 10.5672H9.2805C8.95138 10.5672 8.68458 10.3004 8.68458 9.97127ZM9.2805 12.5536C8.95138 12.5536 8.68458 12.8204 8.68458 13.1495C8.68458 13.4786 8.95138 13.7454 9.2805 13.7454H18.7159C19.045 13.7454 19.3119 13.4786 19.3119 13.1495C19.3119 12.8204 19.045 12.5536 18.7159 12.5536H9.2805ZM8.68458 16.3278C8.68458 15.9987 8.95138 15.7319 9.2805 15.7319H18.7159C19.045 15.7319 19.3119 15.9987 19.3119 16.3278C19.3119 16.6569 19.045 16.9237 18.7159 16.9237H9.2805C8.95138 16.9237 8.68458 16.6569 8.68458 16.3278ZM6.32572 10.5672C6.65484 10.5672 6.92164 10.3004 6.92164 9.97127C6.92164 9.64215 6.65484 9.37535 6.32572 9.37535C5.9966 9.37535 5.7298 9.64215 5.7298 9.97127C5.7298 10.3004 5.9966 10.5672 6.32572 10.5672ZM6.92164 13.1495C6.92164 13.4786 6.65484 13.7454 6.32572 13.7454C5.9966 13.7454 5.7298 13.4786 5.7298 13.1495C5.7298 12.8204 5.9966 12.5536 6.32572 12.5536C6.65484 12.5536 6.92164 12.8204 6.92164 13.1495ZM6.32572 16.9237C6.65484 16.9237 6.92164 16.6569 6.92164 16.3278C6.92164 15.9987 6.65484 15.7319 6.32572 15.7319C5.9966 15.7319 5.7298 15.9987 5.7298 16.3278C5.7298 16.6569 5.9966 16.9237 6.32572 16.9237Z" fill="url(#paint0_linear)"/>
<defs>
<linearGradient id="paint0_linear" x1="2.62604" y1="20.5591" x2="11.9656" y2="-0.790271" gradientUnits="userSpaceOnUse">
<stop stop-color="#E2666A"/>
<stop offset="1" stop-color="#F1D772"/>
</linearGradient>
</defs>
</svg>
